<?xml version="1.0" standalone="no"?>
<!DOCTYPE svg PUBLIC "-//W3C//DTD SVG 20010904//EN"
 "http://www.w3.org/TR/2001/REC-SVG-20010904/DTD/svg10.dtd">
<svg version="1.0" xmlns="http://www.w3.org/2000/svg"
 width="3836.000000pt" height="1554.000000pt" viewBox="0 0 3836.000000 1554.000000"
 preserveAspectRatio="xMidYMid meet">

<g transform="translate(0.000000,1554.000000) scale(0.100000,-0.100000)"
fill="#000000" stroke="none">
<path d="M0 7770 l0 -7770 19180 0 19180 0 0 7770 0 7770 -19180 0 -19180 0 0
-7770z m15705 7690 c3 -5 2 -10 -4 -10 -5 0 -13 5 -16 10 -3 6 -2 10 4 10 5 0
13 -4 16 -10z m-3230 -10 c3 -5 1 -10 -4 -10 -6 0 -11 5 -11 10 0 6 2 10 4 10
3 0 8 -4 11 -10z m-11195 -40 c0 -5 -4 -10 -10 -10 -5 0 -10 5 -10 10 0 6 5
10 10 10 6 0 10 -4 10 -10z m33410 -90 c0 -5 -4 -10 -10 -10 -5 0 -10 5 -10
10 0 6 5 10 10 10 6 0 10 -4 10 -10z m-23320 -20 c0 -5 -4 -10 -10 -10 -5 0
-10 5 -10 10 0 6 5 10 10 10 6 0 10 -4 10 -10z m14435 -60 c3 -5 1 -10 -4 -10
-6 0 -11 5 -11 10 0 6 2 10 4 10 3 0 8 -4 11 -10z m-21870 -80 c3 -5 1 -10 -4
-10 -6 0 -11 5 -11 10 0 6 2 10 4 10 3 0 8 -4 11 -10z m6235 -134 c0 -3 -4 -8
-10 -11 -5 -3 -10 -1 -10 4 0 6 5 11 10 11 6 0 10 -2 10 -4z m-6872 -73 c-21
-2 -57 -2 -80 0 -24 2 -7 4 37 4 44 0 63 -2 43 -4z m307 -81 c-3 -3 -11 0 -18
7 -9 10 -8 11 6 5 10 -3 15 -9 12 -12z m4710 -52 c3 -5 -1 -10 -10 -10 -9 0
-13 5 -10 10 3 6 8 10 10 10 2 0 7 -4 10 -10z m-4554 -37 c13 -16 12 -17 -3
-4 -10 7 -18 15 -18 17 0 8 8 3 21 -13z m64 -51 c-3 -3 -16 5 -28 17 l-22 23
28 -17 c15 -10 25 -20 22 -23z m12295 -6 c0 -3 -4 -8 -10 -11 -5 -3 -10 -1
-10 4 0 6 5 11 10 11 6 0 10 -2 10 -4z m-12230 -62 c19 -24 37 -50 39 -57 1
-6 -5 -1 -14 13 -10 14 -34 42 -54 63 -20 21 -29 35 -21 32 8 -3 31 -26 50
-51z m-609 -92 c24 -16 106 -63 182 -107 151 -85 149 -82 71 -124 l-40 -23
-110 65 c-60 35 -119 70 -132 78 -24 15 -28 13 -100 -32 -20 -13 -27 -11 -78
15 -48 25 -53 31 -41 43 17 17 178 110 193 112 5 1 30 -12 55 -27z m718 -54
c13 -21 19 -38 14 -38 -4 0 -23 26 -41 58 -18 31 -25 48 -14 37 10 -11 29 -37
41 -57z m19606 -18 c3 -5 -1 -10 -10 -10 -9 0 -13 5 -10 10 3 6 8 10 10 10 2
0 7 -4 10 -10z m-19165 -20 c0 -5 -4 -10 -10 -10 -5 0 -10 5 -10 10 0 6 5 10
10 10 6 0 10 -4 10 -10z m-396 -60 c5 -17 4 -20 -2 -10 -5 8 -13 26 -16 40 -5
17 -4 20 2 10 5 -8 13 -26 16 -40z m-948 -50 c66 -38 125 -70 132 -70 7 0 30
11 52 25 22 14 47 25 56 25 23 0 105 -50 99 -61 -3 -4 -51 -34 -107 -66 -97
-55 -102 -56 -127 -41 -116 69 -326 188 -333 188 -4 0 -8 4 -8 9 0 13 80 61
101 61 9 0 70 -31 135 -70z m982 -55 c0 -16 -2 -15 -8 5 -11 34 -11 60 0 35 5
-11 8 -29 8 -40z m-1225 19 c65 -33 67 -37 67 -155 l0 -107 78 -46 c43 -25 82
-46 85 -46 4 0 7 47 7 105 0 58 3 105 6 105 4 0 89 -46 102 -56 9 -6 3 -569
-5 -571 -5 -2 -29 10 -54 26 l-44 30 -5 112 -5 112 -73 44 c-41 24 -78 43 -83
43 -5 0 -9 -47 -9 -105 0 -58 -3 -105 -6 -105 -4 0 -75 38 -102 55 -2 1 -4
538 -2 568 0 10 7 9 43 -9z m797 -269 l0 -285 -52 -30 c-29 -16 -55 -30 -58
-30 -5 1 -35 42 -114 160 l-51 75 -3 -168 -2 -167 -48 -30 c-26 -16 -53 -30
-59 -30 -10 0 -13 63 -13 284 l0 283 51 32 c29 18 58 30 65 27 7 -3 41 -47 75
-98 102 -153 93 -156 99 38 l5 168 40 28 c22 15 46 27 53 28 9 0 12 -63 12
-285z m13795 245 c3 -5 1 -10 -4 -10 -6 0 -11 5 -11 10 0 6 2 10 4 10 3 0 8
-4 11 -10z m-16615 -10 c0 -5 -5 -10 -11 -10 -5 0 -7 5 -4 10 3 6 8 10 11 10
2 0 4 -4 4 -10z m3279 -72 c20 -82 7 -295 -21 -338 -6 -10 -7 2 -1 35 10 67
10 291 -1 335 -5 23 -5 31 2 25 5 -5 14 -31 21 -57z m10225 -48 l1 -55 67 -3
67 -3 3 58 c2 47 6 58 22 61 34 7 38 -11 30 -147 -7 -127 -8 -132 -28 -129
-18 3 -21 11 -24 66 l-3 63 -67 -3 -67 -3 -3 -62 c-3 -55 -6 -63 -22 -63 -19
0 -20 8 -20 141 0 138 0 140 22 137 19 -3 21 -10 22 -58z m2637 39 c20 -38 99
-252 94 -257 -12 -12 -53 10 -59 33 -6 23 -11 25 -66 25 -54 0 -60 -2 -72 -27
-12 -26 -58 -46 -58 -26 1 14 36 114 69 193 17 41 31 76 31 78 0 1 11 2 25 2
15 0 29 -8 36 -21z m189 -22 l0 -43 58 4 c47 3 62 0 84 -17 35 -28 44 -76 25
-124 -21 -48 -41 -56 -136 -54 l-81 1 0 138 0 138 25 0 c23 0 25 -4 25 -43z
m2411 33 c10 -6 19 -17 19 -25 0 -18 -1 -18 -37 -4 -15 6 -43 8 -61 4 -29 -5
-33 -10 -30 -33 2 -21 14 -32 54 -52 29 -14 59 -31 68 -39 24 -20 20 -68 -9
-96 -20 -21 -34 -25 -83 -25 -58 0 -101 18 -89 37 3 5 31 8 63 5 46 -4 60 -1
70 13 19 26 6 45 -50 70 -69 31 -81 47 -77 107 2 38 113 64 162 38z m2317 -18
c3 -20 1 -21 -25 -11 -15 6 -43 8 -61 4 -29 -5 -33 -10 -30 -33 2 -22 14 -32
61 -55 66 -32 82 -59 66 -107 -14 -40 -36 -50 -106 -50 -61 0 -79 6 -85 29 -2
11 12 15 67 15 68 1 70 2 73 27 3 22 -4 28 -40 45 -96 43 -121 92 -73 140 22
22 32 25 88 22 56 -3 62 -5 65 -26z m3192 13 c0 -12 -14 -15 -69 -15 -75 0
-81 -5 -74 -57 5 -31 7 -32 56 -35 72 -4 76 -28 4 -28 -61 0 -67 -7 -67 -87 0
-36 -3 -43 -20 -43 -19 0 -20 7 -20 140 l0 140 95 0 c78 0 95 -3 95 -15z m178
-97 c52 -133 60 -168 41 -168 -21 0 -36 13 -43 38 -7 20 -14 22 -69 22 -60 0
-63 -1 -74 -30 -8 -20 -18 -30 -32 -30 -26 0 -26 2 0 70 11 30 32 87 46 125
27 74 35 85 68 85 16 0 28 -21 63 -112z m309 92 c59 -35 82 -125 48 -189 l-14
-28 80 -1 c69 -1 80 1 77 15 -2 9 -21 21 -46 28 -53 16 -72 31 -72 59 0 34 14
45 62 52 57 8 98 -1 98 -21 0 -11 -13 -15 -55 -15 -69 0 -76 -22 -11 -39 73
-18 97 -60 57 -100 -16 -16 -35 -18 -197 -17 -151 1 -183 4 -203 18 -39 27
-61 69 -61 116 0 90 55 142 150 142 37 0 66 -6 87 -20z m-7644 -29 c4 -17 14
-30 26 -34 26 -6 27 -24 2 -32 -13 -4 -20 -19 -24 -50 -8 -55 -1 -74 29 -81
40 -10 27 -24 -21 -24 -40 0 -47 3 -55 26 -6 14 -10 47 -10 73 0 31 -5 53 -15
61 -8 7 -15 16 -15 21 0 5 7 9 15 9 9 0 15 9 15 23 0 47 44 53 53 8z m1761 4
c3 -13 15 -29 26 -35 26 -14 25 -24 -4 -38 -22 -10 -24 -17 -23 -64 2 -50 4
-53 31 -58 38 -6 45 -27 12 -36 -66 -16 -96 17 -96 106 0 33 -5 50 -15 54 -8
3 -15 12 -15 21 0 8 7 15 15 15 9 0 15 9 15 23 0 28 7 37 31 37 10 0 19 -10
23 -25z m362 -4 c4 -17 14 -31 25 -34 26 -7 24 -26 -4 -36 -20 -8 -23 -16 -22
-62 0 -49 2 -53 27 -60 16 -4 30 -3 33 2 3 5 33 6 65 2 50 -5 60 -3 60 10 0
10 -18 22 -50 32 -54 18 -75 43 -64 78 9 31 22 37 76 37 56 0 78 -7 78 -26 0
-10 -15 -14 -55 -14 -69 0 -76 -22 -11 -39 136 -34 78 -142 -59 -111 -26 6
-44 5 -52 -2 -18 -15 -81 -1 -93 22 -5 10 -10 42 -10 71 0 37 -5 56 -17 65
-17 13 -17 15 0 28 9 7 17 22 17 33 0 44 48 47 56 4z m13544 -11 c0 -5 -4 -10
-10 -10 -5 0 -10 5 -10 10 0 6 5 10 10 10 6 0 10 -4 10 -10z m-18846 -35 c53
-35 57 -106 8 -157 -22 -24 -34 -28 -80 -28 -46 0 -58 4 -83 29 -23 23 -29 38
-29 71 0 33 6 48 29 71 25 24 37 29 81 29 29 0 61 -7 74 -15z m363 0 c26 -19
26 -162 1 -178 -25 -17 -30 -5 -32 75 l-1 73 -35 0 -35 0 -5 -75 c-5 -68 -7
-75 -27 -78 -22 -3 -23 -1 -23 78 l0 81 -37 -3 -38 -3 -5 -75 c-4 -67 -7 -75
-25 -75 -18 0 -20 8 -23 84 -2 46 -1 90 2 96 6 18 259 17 283 0z m245 -15 c12
-15 18 -35 16 -54 l-3 -31 -75 -3 c-41 -2 -77 -6 -80 -9 -14 -14 40 -33 93
-33 42 0 58 -3 55 -12 -5 -14 -106 -23 -144 -14 -49 13 -66 64 -47 135 14 53
147 68 185 21z m2182 24 c9 -3 25 -21 37 -40 28 -46 20 -93 -23 -129 -28 -24
-39 -27 -87 -23 -44 4 -59 10 -78 32 -34 40 -32 99 6 137 25 24 38 29 79 29
28 0 57 -3 66 -6z m136 -69 c0 -69 2 -76 22 -84 12 -4 30 -6 40 -3 23 6 41 62
36 115 -3 39 -1 42 22 42 25 0 25 0 25 -94 l0 -95 -68 -3 c-90 -3 -113 7 -126
54 -12 42 -15 126 -4 136 3 4 17 7 30 7 22 0 23 -3 23 -75z m2251 56 c22 -17
24 -27 24 -97 l0 -78 -77 -3 c-69 -3 -79 -1 -97 19 -26 27 -27 59 -2 89 16 20
28 24 74 23 43 -1 54 1 50 12 -4 10 -23 14 -64 14 -44 0 -59 4 -59 14 0 19 15
24 76 25 37 1 59 -5 75 -18z m2216 -5 c24 -21 28 -32 28 -76 0 -45 -4 -55 -29
-77 -27 -23 -36 -25 -88 -20 l-58 5 0 -38 c0 -42 -9 -54 -34 -44 -14 5 -16 27
-16 139 l0 132 85 2 c75 1 87 -2 112 -23z m254 -7 c29 -38 25 -106 -8 -141
-23 -24 -35 -28 -81 -28 -46 0 -58 4 -83 29 -41 42 -41 101 1 143 29 28 35 30
92 26 49 -4 64 -9 79 -29z m239 11 c17 -17 20 -34 20 -101 0 -78 -1 -80 -22
-77 -21 3 -23 10 -28 78 l-5 75 -35 3 c-47 5 -60 -16 -60 -95 0 -61 -1 -63
-25 -63 -25 0 -25 0 -25 99 l0 98 80 1 c68 1 84 -2 100 -18z m188 14 c12 -4
22 -13 22 -20 0 -10 -14 -14 -49 -14 -58 0 -74 -15 -34 -31 85 -34 93 -39 93
-62 0 -12 -7 -33 -16 -45 -28 -40 -154 -25 -154 18 0 4 27 6 61 3 56 -5 61 -4
57 13 -2 12 -19 23 -48 31 -51 15 -73 38 -64 67 12 42 65 57 132 40z m253 -25
c32 -35 36 -63 15 -114 -17 -41 -42 -55 -96 -55 -89 0 -136 57 -109 134 17 49
46 66 112 66 42 0 53 -5 78 -31z m199 16 c9 -11 4 -15 -24 -20 -48 -9 -54 -20
-58 -95 -3 -62 -4 -65 -28 -65 -24 0 -25 2 -28 84 -2 46 -1 90 2 97 7 17 122
16 136 -1z m166 1 c28 -21 11 -30 -51 -27 -44 2 -55 -1 -55 -13 0 -9 12 -18
28 -22 55 -12 82 -27 88 -49 8 -32 -11 -63 -43 -71 -39 -10 -117 8 -121 28 -3
14 5 15 58 11 57 -6 62 -4 58 13 -2 13 -19 23 -56 33 -51 14 -52 15 -52 52 0
26 6 41 18 48 25 15 105 13 128 -3z m9579 -76 c3 -5 1 -10 -4 -10 -6 0 -11 5
-11 10 0 6 2 10 4 10 3 0 8 -4 11 -10z m-28939 -226 c-4 -9 -9 -15 -11 -12 -3
3 -3 13 1 22 4 9 9 15 11 12 3 -3 3 -13 -1 -22z m3404 -34 c0 -5 -5 -10 -11
-10 -5 0 -7 5 -4 10 3 6 8 10 11 10 2 0 4 -4 4 -10z m-3487 -149 c-3 -10 -18
-34 -34 -52 -23 -27 -26 -29 -16 -9 14 29 48 80 52 80 2 0 1 -9 -2 -19z
m30217 -81 c0 -5 -4 -10 -10 -10 -5 0 -10 5 -10 10 0 6 5 10 10 10 6 0 10 -4
10 -10z m-2200 -10 c0 -5 -2 -10 -4 -10 -3 0 -8 5 -11 10 -3 6 -1 10 4 10 6 0
11 -4 11 -10z m-28120 -55 c-13 -14 -26 -23 -28 -20 -3 3 5 16 18 30 13 14 26
23 28 20 3 -3 -5 -16 -18 -30z m4800 -35 c0 -5 -4 -10 -10 -10 -5 0 -10 5 -10
10 0 6 5 10 10 10 6 0 10 -4 10 -10z m-4876 -40 c-16 -16 -33 -30 -38 -30 -6
0 5 16 24 35 18 19 36 33 38 30 2 -2 -8 -18 -24 -35z m31806 20 c0 -5 -4 -10
-10 -10 -5 0 -10 5 -10 10 0 6 5 10 10 10 6 0 10 -4 10 -10z m-20530 -10 c0
-5 -5 -10 -11 -10 -5 0 -7 5 -4 10 3 6 8 10 11 10 2 0 4 -4 4 -10z m-7900
-204 c0 -3 -4 -8 -10 -11 -5 -3 -10 -1 -10 4 0 6 5 11 10 11 6 0 10 -2 10 -4z
m-4055 -46 c3 -6 -1 -13 -10 -16 -19 -8 -30 0 -20 15 8 14 22 14 30 1z m2795
-110 c0 -5 -5 -10 -11 -10 -5 0 -7 5 -4 10 3 6 8 10 11 10 2 0 4 -4 4 -10z
m23140 -10 c0 -5 -4 -10 -10 -10 -5 0 -10 5 -10 10 0 6 5 10 10 10 6 0 10 -4
10 -10z m-28345 -10 c3 -5 -1 -10 -10 -10 -9 0 -13 5 -10 10 3 6 8 10 10 10 2
0 7 -4 10 -10z m29285 -60 c0 -5 -2 -10 -4 -10 -3 0 -8 5 -11 10 -3 6 -1 10 4
10 6 0 11 -4 11 -10z m7750 -110 c0 -5 -4 -10 -10 -10 -5 0 -10 5 -10 10 0 6
5 10 10 10 6 0 10 -4 10 -10z m-4820 -220 c0 -5 -4 -10 -10 -10 -5 0 -10 5
-10 10 0 6 5 10 10 10 6 0 10 -4 10 -10z m-4340 -10 c0 -5 -4 -10 -10 -10 -5
0 -10 5 -10 10 0 6 5 10 10 10 6 0 10 -4 10 -10z m-15670 -80 c0 -5 -5 -10
-11 -10 -5 0 -7 5 -4 10 3 6 8 10 11 10 2 0 4 -4 4 -10z m-1410 -150 c0 -5 -4
-10 -10 -10 -5 0 -10 5 -10 10 0 6 5 10 10 10 6 0 10 -4 10 -10z m11815 -50
c3 -5 1 -10 -4 -10 -6 0 -11 5 -11 10 0 6 2 10 4 10 3 0 8 -4 11 -10z m14145
-190 c0 -5 -2 -10 -4 -10 -3 0 -8 5 -11 10 -3 6 -1 10 4 10 6 0 11 -4 11 -10z
m-26805 -20 c3 -5 1 -10 -4 -10 -6 0 -11 5 -11 10 0 6 2 10 4 10 3 0 8 -4 11
-10z m230 -130 c3 -5 1 -10 -4 -10 -6 0 -11 5 -11 10 0 6 2 10 4 10 3 0 8 -4
11 -10z m9415 0 c0 -5 -4 -10 -10 -10 -5 0 -10 5 -10 10 0 6 5 10 10 10 6 0
10 -4 10 -10z m-16460 -10 c0 -5 -4 -10 -10 -10 -5 0 -10 5 -10 10 0 6 5 10
10 10 6 0 10 -4 10 -10z m26280 -140 c0 -5 -4 -10 -10 -10 -5 0 -10 5 -10 10
0 6 5 10 10 10 6 0 10 -4 10 -10z m-850 -10 c0 -5 -5 -10 -11 -10 -5 0 -7 5
-4 10 3 6 8 10 11 10 2 0 4 -4 4 -10z m-6210 -50 c0 -5 -5 -10 -11 -10 -5 0
-7 5 -4 10 3 6 8 10 11 10 2 0 4 -4 4 -10z m1285 -110 c3 -5 -1 -10 -10 -10
-9 0 -13 5 -10 10 3 6 8 10 10 10 2 0 7 -4 10 -10z m1765 -30 c0 -5 -4 -10
-10 -10 -5 0 -10 5 -10 10 0 6 5 10 10 10 6 0 10 -4 10 -10z m-23330 -240 c0
-5 -4 -10 -10 -10 -5 0 -10 5 -10 10 0 6 5 10 10 10 6 0 10 -4 10 -10z m-2310
-10 c0 -5 -4 -10 -10 -10 -5 0 -10 5 -10 10 0 6 5 10 10 10 6 0 10 -4 10 -10z
m7860 -20 c0 -5 -5 -10 -11 -10 -5 0 -7 5 -4 10 3 6 8 10 11 10 2 0 4 -4 4
-10z m-7940 -30 c0 -5 -5 -10 -11 -10 -5 0 -7 5 -4 10 3 6 8 10 11 10 2 0 4
-4 4 -10z m4260 -20 c0 -5 -2 -10 -4 -10 -3 0 -8 5 -11 10 -3 6 -1 10 4 10 6
0 11 -4 11 -10z m16765 -210 c3 -5 -1 -10 -9 -10 -9 0 -16 5 -16 10 0 6 4 10
9 10 6 0 13 -4 16 -10z m-13225 -14 c0 -3 -4 -8 -10 -11 -5 -3 -10 -1 -10 4 0
6 5 11 10 11 6 0 10 -2 10 -4z m18770 -300 c0 -3 -4 -8 -10 -11 -5 -3 -10 -1
-10 4 0 6 5 11 10 11 6 0 10 -2 10 -4z m1830 -296 c0 -5 -2 -10 -4 -10 -3 0
-8 5 -11 10 -3 6 -1 10 4 10 6 0 11 -4 11 -10z m-10160 -234 c0 -3 -4 -8 -10
-11 -5 -3 -10 -1 -10 4 0 6 5 11 10 11 6 0 10 -2 10 -4z m14400 -30 c0 -3 -4
-8 -10 -11 -5 -3 -10 -1 -10 4 0 6 5 11 10 11 6 0 10 -2 10 -4z m-2965 -196
c3 -5 2 -10 -4 -10 -5 0 -13 5 -16 10 -3 6 -2 10 4 10 5 0 13 -4 16 -10z m60
0 c3 -5 1 -10 -4 -10 -6 0 -11 5 -11 10 0 6 2 10 4 10 3 0 8 -4 11 -10z
m-10245 -30 c0 -5 -7 -10 -16 -10 -8 0 -12 5 -9 10 3 6 10 10 16 10 5 0 9 -4
9 -10z m-13120 -50 c0 -5 -2 -10 -4 -10 -3 0 -8 5 -11 10 -3 6 -1 10 4 10 6 0
11 -4 11 -10z m22630 -160 c0 -5 -2 -10 -4 -10 -3 0 -8 5 -11 10 -3 6 -1 10 4
10 6 0 11 -4 11 -10z m-3330 -110 c0 -19 -11 -26 -23 -14 -8 8 3 34 14 34 5 0
9 -9 9 -20z m-5860 -191 c153 -199 261 -340 419 -549 61 -80 134 -174 163
-210 l53 -65 3 402 c2 396 3 402 23 408 11 4 24 4 27 0 4 -4 7 -201 7 -438 l0
-432 55 -3 c106 -5 100 2 100 -117 0 -119 -1 -117 90 -110 30 2 58 4 63 5 4 0
7 83 7 185 l0 186 -47 -6 c-27 -3 -61 -2 -78 3 l-30 8 -6 235 c-3 129 -10 323
-14 432 -7 177 -6 197 9 197 8 0 18 11 22 25 l6 25 364 0 364 0 0 -1200 0
-1200 -39 0 c-21 0 -44 -6 -50 -14 -9 -11 -63 -13 -293 -10 -249 3 -283 5
-300 21 -10 9 -65 78 -120 152 -56 75 -116 152 -132 172 -41 47 -51 60 -118
149 -31 41 -71 91 -88 110 -18 19 -51 61 -74 93 -70 99 -84 117 -118 156 -18
21 -60 76 -93 121 -33 46 -80 106 -105 133 -25 27 -49 56 -54 65 -17 33 -80
112 -89 112 -4 0 -5 -4 -2 -10 3 -5 3 -10 -2 -10 -4 0 -7 -26 -6 -57 1 -32 -3
-64 -9 -70 -6 -7 -9 -49 -7 -96 l4 -84 60 -78 c33 -42 94 -121 135 -174 86
-111 268 -347 383 -495 43 -56 119 -155 169 -221 50 -66 98 -125 107 -132 11
-8 50 -10 131 -6 131 6 461 -5 480 -17 7 -4 9 -16 6 -28 -9 -29 -37 -31 -367
-34 -240 -3 -289 -1 -304 12 -10 8 -68 80 -129 160 -62 80 -159 206 -217 280
-58 74 -168 216 -244 315 -76 99 -157 202 -179 229 l-41 50 -5 -394 -5 -395
-38 -6 c-21 -3 -45 -12 -52 -20 -12 -11 -55 -13 -238 -9 l-223 5 -70 54 c-38
30 -71 59 -72 63 -2 5 -15 22 -28 37 l-24 29 0 1046 c0 1142 -3 1076 57 1123
15 12 42 34 58 47 l30 25 290 -2 289 -2 136 -176z m2910 -1019 l0 -1200 -33 0
c-18 0 -41 -6 -52 -13 -17 -11 -256 -15 -451 -8 -22 1 -43 12 -67 36 -19 19
-37 32 -40 29 -3 -3 -27 24 -54 60 l-49 66 -3 1048 -2 1049 73 67 72 66 303 0
303 0 0 -1200z m2701 1003 c-48 -109 -96 -215 -107 -235 -19 -37 -87 -92 -99
-80 -4 4 -148 7 -320 8 l-313 0 -6 -44 c-3 -25 -6 -58 -6 -73 l0 -29 228 -1
c125 0 245 -2 267 -3 22 -2 46 1 53 6 6 6 12 7 12 4 0 -7 -29 -68 -37 -76 -3
-3 -122 -7 -266 -10 l-262 -5 -3 -64 c-2 -35 1 -68 7 -74 5 -5 38 -11 73 -12
35 -1 66 -3 71 -4 4 0 7 -341 7 -756 l0 -755 -34 0 c-19 0 -41 -6 -48 -12 -12
-12 -149 -14 -455 -9 -21 1 -42 11 -61 29 -16 15 -40 36 -53 47 -14 11 -35 33
-47 49 -12 16 -22 25 -22 20 0 -5 -7 4 -15 20 -13 24 -15 145 -15 892 l0 863
-402 1 c-309 0 -404 3 -410 13 -4 6 -8 78 -8 160 0 92 -4 147 -10 147 -6 0
-19 -15 -30 -32 -11 -18 -20 -27 -20 -19 0 8 17 33 38 56 20 24 45 55 55 69
10 15 41 45 69 66 l50 40 1103 0 1103 0 -87 -197z m2777 84 l112 -114 0 -447
0 -447 -42 -51 c-114 -135 -217 -242 -243 -252 -11 -4 -59 -7 -108 -7 -99 2
-135 -11 -113 -42 7 -9 16 -14 20 -10 4 4 4 0 1 -9 -7 -19 52 -91 67 -82 6 4
8 -1 4 -14 -6 -17 39 -82 214 -312 l220 -292 -1 -107 c0 -58 -4 -115 -9 -126
-5 -11 -9 -14 -9 -7 -1 10 -17 13 -63 11 -35 -2 -188 -2 -340 -1 l-277 2 -47
73 c-83 129 -117 177 -126 177 -4 0 -8 5 -8 12 0 6 -19 41 -42 77 -102 160
-345 530 -405 615 -12 17 -22 40 -22 52 -1 22 28 100 82 214 19 42 37 89 41
106 4 18 18 42 31 54 14 13 29 38 35 56 l11 34 162 2 162 3 3 85 c2 47 0 95
-3 108 l-5 22 -470 0 -470 0 0 -85 0 -84 34 -6 c18 -4 42 -6 52 -5 11 1 31 2
47 1 l27 -1 -2 -742 -3 -742 -35 -7 c-18 -4 -39 -14 -45 -22 -8 -11 -16 -13
-26 -6 -8 5 -114 9 -237 9 l-223 0 -57 53 c-31 28 -61 58 -65 65 -4 6 -19 24
-33 39 l-24 26 0 1051 1 1051 22 26 c12 15 44 45 70 68 l48 41 988 0 987 0
112 -113z m-11309 24 c13 -8 14 -85 12 -523 -1 -282 1 -521 4 -531 4 -9 11
-17 16 -17 10 0 84 62 362 305 120 104 246 212 280 238 l62 48 307 -3 c168 -2
309 -6 312 -9 10 -9 -107 -431 -127 -456 -7 -10 -51 -13 -159 -13 -149 0 -150
0 -191 -29 -23 -16 -53 -40 -67 -53 -37 -35 -266 -235 -335 -293 -33 -27 -76
-64 -95 -82 -19 -18 -46 -41 -60 -51 -22 -18 -23 -22 -10 -37 28 -35 315 -262
960 -759 58 -45 121 -94 140 -109 19 -15 64 -50 100 -78 36 -28 65 -56 65 -62
0 -18 -732 -22 -761 -4 -28 16 -123 88 -201 151 -34 28 -81 66 -105 84 -24 18
-116 90 -206 160 -90 70 -182 142 -205 159 -23 18 -51 32 -62 30 -19 -2 -20
-10 -22 -286 -2 -199 -6 -288 -14 -298 -10 -11 -50 -13 -231 -9 -121 3 -223 8
-229 11 -13 9 -12 2480 1 2506 10 18 23 19 228 19 119 0 223 -4 231 -9z
m-16149 -21 c0 -5 -5 -10 -11 -10 -5 0 -7 5 -4 10 3 6 8 10 11 10 2 0 4 -4 4
-10z m21200 -74 c0 -2 -8 -10 -17 -17 -16 -13 -17 -12 -4 4 13 16 21 21 21 13z
m-1525 -16 c-3 -5 -10 -10 -16 -10 -5 0 -9 5 -9 10 0 6 7 10 16 10 8 0 12 -4
9 -10z m5519 -5 c-4 -8 -8 -15 -10 -15 -2 0 -4 7 -4 15 0 8 4 15 10 15 5 0 7
-7 4 -15z m-8054 1 c0 -3 -4 -8 -10 -11 -5 -3 -10 -1 -10 4 0 6 5 11 10 11 6
0 10 -2 10 -4z m-1480 -36 c0 -5 -4 -10 -10 -10 -5 0 -10 5 -10 10 0 6 5 10
10 10 6 0 10 -4 10 -10z m-1720 -20 c0 -5 -7 -10 -15 -10 -8 0 -15 5 -15 10 0
6 7 10 15 10 8 0 15 -4 15 -10z m7216 -2216 c42 -46 84 -86 94 -89 9 -3 121
-7 248 -8 240 -3 265 -8 255 -46 -3 -11 -15 -22 -26 -25 -12 -3 -136 -6 -275
-6 l-254 0 -84 83 -84 83 0 1059 0 1059 23 24 22 24 3 -1037 2 -1037 76 -84z
m-3107 1103 c1 -554 6 -1018 11 -1030 4 -12 42 -56 84 -97 l76 -74 233 -2
c244 -1 280 -7 270 -43 -7 -27 -53 -32 -320 -30 l-235 1 -89 88 -89 88 0 1045
0 1044 22 28 c20 26 22 26 29 9 4 -10 7 -473 8 -1027z m7045 966 c3 -42 6
-509 6 -1038 l0 -963 83 -86 82 -86 253 0 252 0 0 -35 0 -35 -278 0 -278 0
-87 89 -87 88 0 1043 c0 966 1 1044 17 1071 10 16 20 29 24 29 3 0 9 -34 13
-77z m-2824 -88 l0 -155 399 0 c312 0 401 -3 409 -13 8 -9 11 -279 11 -875 l0
-863 62 -67 c107 -114 80 -105 333 -108 258 -2 276 -5 276 -44 l0 -28 -278 -1
-278 -2 -82 84 c-45 47 -83 86 -84 88 -2 2 -5 396 -8 874 l-5 870 -395 3
c-217 1 -398 6 -403 11 -5 5 -8 87 -8 182 1 151 4 176 18 187 9 6 20 12 25 12
4 0 8 -70 8 -155z m-1390 115 c0 -5 -4 -10 -10 -10 -5 0 -10 5 -10 10 0 6 5
10 10 10 6 0 10 -4 10 -10z m15055 -70 c3 -5 1 -10 -4 -10 -6 0 -11 5 -11 10
0 6 2 10 4 10 3 0 8 -4 11 -10z m-1665 -130 c0 -5 -4 -10 -10 -10 -5 0 -10 5
-10 10 0 6 5 10 10 10 6 0 10 -4 10 -10z m-21705 -33 c188 -66 319 -161 413
-302 70 -106 96 -169 153 -375 9 -33 13 -216 16 -682 l4 -638 -33 -1 c-217 -6
-1614 5 -1653 13 -67 13 -209 82 -269 130 -27 21 -69 66 -94 100 -47 65 -95
159 -85 168 3 3 8 -1 10 -7 3 -7 13 -23 24 -35 l20 -23 -13 25 c-20 38 -40 60
-49 54 -5 -3 -9 0 -9 5 0 6 7 11 15 11 8 0 15 7 15 15 0 8 -4 15 -9 15 -10 0
-51 84 -50 102 0 7 7 0 14 -17 l14 -30 2 30 c1 17 3 23 6 13 2 -10 11 -18 19
-18 11 0 13 6 9 20 -4 11 -2 20 4 20 6 0 11 -4 11 -10 0 -20 27 -9 38 15 14
30 16 59 4 51 -4 -2 -6 11 -4 31 3 25 1 34 -7 29 -6 -4 -11 -1 -11 7 0 8 6 17
13 20 8 3 13 -9 15 -36 5 -75 21 -65 24 16 2 57 11 69 32 42 7 -9 16 -12 25
-6 11 7 9 13 -9 31 -19 19 -21 29 -15 66 5 36 3 44 -9 44 -9 0 -16 8 -16 18 0
11 -8 26 -18 35 -24 22 -46 7 -40 -27 4 -20 2 -24 -7 -16 -10 8 -17 0 -29 -37
-22 -63 -45 -105 -46 -80 0 9 4 25 9 35 13 24 41 89 41 95 0 2 20 34 44 70 42
62 136 157 156 157 5 0 15 6 22 13 48 46 159 85 292 103 73 10 235 13 577 14
498 0 499 0 499 44 0 56 -114 206 -157 206 -10 0 -28 7 -40 15 -25 18 10 16
-503 21 -242 2 -434 8 -445 14 -11 5 -31 11 -45 13 -14 2 0 5 30 7 30 1 47 4
38 7 -10 2 -18 8 -18 13 0 4 -9 6 -21 3 -16 -5 -20 -2 -17 12 2 11 16 22 35
27 24 6 31 13 28 27 -2 11 7 29 21 42 21 20 22 23 8 34 -14 10 -14 12 2 26 13
11 18 11 21 2 3 -7 12 -13 21 -13 15 1 15 2 0 11 -10 5 -18 17 -18 24 0 8 -4
15 -10 15 -5 0 -10 10 -10 23 0 13 -6 29 -12 37 -11 12 -10 12 4 1 13 -10 22
-9 46 3 32 16 48 42 30 48 -8 3 -8 10 0 25 10 19 50 33 107 39 11 1 65 7 120
13 158 17 197 19 430 16 204 -3 225 -5 290 -28z m2838 1 c7 -44 7 -405 0 -423
-4 -13 -87 -15 -585 -15 -611 0 -632 -1 -722 -47 -39 -20 -115 -91 -141 -133
-48 -77 -55 -124 -55 -357 0 -293 17 -359 114 -456 42 -42 119 -81 145 -72 12
3 21 0 24 -9 5 -13 83 -16 602 -18 535 -3 598 -5 608 -19 14 -19 17 -432 4
-446 -5 -4 -279 -9 -610 -11 -641 -3 -680 -1 -815 49 -131 47 -284 151 -346
235 -17 21 -33 41 -36 44 -4 3 -21 27 -39 53 -46 67 -86 159 -112 258 -21 78
-23 105 -24 384 0 284 1 304 23 380 65 226 210 418 397 527 77 44 186 88 244
98 26 4 332 8 682 9 l637 1 5 -32z m-2173 -68 c0 -5 -2 -10 -4 -10 -3 0 -8 5
-11 10 -3 6 -1 10 4 10 6 0 11 -4 11 -10z m4380 0 c0 -5 -7 -10 -15 -10 -8 0
-15 5 -15 10 0 6 7 10 15 10 8 0 15 -4 15 -10z m-13590 -110 c0 -5 -4 -10 -10
-10 -5 0 -10 5 -10 10 0 6 5 10 10 10 6 0 10 -4 10 -10z m27590 -20 c0 -5 -2
-10 -4 -10 -3 0 -8 5 -11 10 -3 6 -1 10 4 10 6 0 11 -4 11 -10z m-20274 -198
c-10 -9 21 -30 50 -35 20 -3 14 -4 -19 -6 -41 -1 -49 2 -56 22 -12 31 -3 51
15 36 8 -7 12 -14 10 -17z m47 11 c-7 -2 -19 -2 -25 0 -7 3 -2 5 12 5 14 0 19
-2 13 -5z m17 -23 c0 -5 -7 -10 -16 -10 -8 0 -12 5 -9 10 3 6 10 10 16 10 5 0
9 -4 9 -10z m-2750 -20 c0 -5 -4 -10 -10 -10 -5 0 -10 5 -10 10 0 6 5 10 10
10 6 0 10 -4 10 -10z m17450 0 c0 -5 -4 -10 -10 -10 -5 0 -10 5 -10 10 0 6 5
10 10 10 6 0 10 -4 10 -10z m-16930 -29 c0 -6 -4 -13 -10 -16 -5 -3 -10 1 -10
9 0 9 5 16 10 16 6 0 10 -4 10 -9z m5098 -82 c-2 -6 -8 -10 -13 -10 -5 0 -11
4 -13 10 -2 6 4 11 13 11 9 0 15 -5 13 -11z m-6578 -33 c0 -3 -4 -8 -10 -11
-5 -3 -10 -1 -10 4 0 6 5 11 10 11 6 0 10 -2 10 -4z m26330 -276 c0 -5 -5 -10
-11 -10 -5 0 -7 5 -4 10 3 6 8 10 11 10 2 0 4 -4 4 -10z m130 0 c0 -5 -2 -10
-4 -10 -3 0 -8 5 -11 10 -3 6 -1 10 4 10 6 0 11 -4 11 -10z m420 -30 c0 -5 -2
-10 -4 -10 -3 0 -8 5 -11 10 -3 6 -1 10 4 10 6 0 11 -4 11 -10z m-8449 -113
c15 -30 148 -234 434 -667 67 -102 138 -211 158 -242 41 -66 44 -66 177 -55
100 9 452 2 557 -11 47 -6 66 -14 82 -33 11 -13 20 -27 21 -30 0 -8 -761 -17
-810 -9 -33 5 -44 19 -225 290 -288 433 -433 655 -446 684 -10 21 -9 33 6 66
10 22 21 40 24 40 3 0 13 -15 22 -33z m2449 13 c0 -5 -2 -10 -4 -10 -3 0 -8 5
-11 10 -3 6 -1 10 4 10 6 0 11 -4 11 -10z m-25600 -40 c0 -5 -4 -10 -10 -10
-5 0 -10 5 -10 10 0 6 5 10 10 10 6 0 10 -4 10 -10z m6170 -20 c0 -5 -4 -10
-10 -10 -5 0 -10 5 -10 10 0 6 5 10 10 10 6 0 10 -4 10 -10z m1955 -90 c3 -5
1 -10 -4 -10 -6 0 -11 5 -11 10 0 6 2 10 4 10 3 0 8 -4 11 -10z m-29 -27 c-10
-10 -19 5 -10 18 6 11 8 11 12 0 2 -7 1 -15 -2 -18z m23144 -27 c0 -3 -4 -8
-10 -11 -5 -3 -10 -1 -10 4 0 6 5 11 10 11 6 0 10 -2 10 -4z m-6620 -20 c0 -3
-4 -8 -10 -11 -5 -3 -10 -1 -10 4 0 6 5 11 10 11 6 0 10 -2 10 -4z m-16558
-48 c-24 -24 -30 -10 -10 22 8 13 16 16 22 10 7 -7 3 -18 -12 -32z m-11 -71
c-8 -8 -11 -7 -11 4 0 20 13 34 18 19 3 -7 -1 -17 -7 -23z m3909 -161 c0 -3
-4 -8 -10 -11 -5 -3 -10 -1 -10 4 0 6 5 11 10 11 6 0 10 -2 10 -4z m-3927 -41
c4 -8 2 -17 -3 -20 -6 -4 -10 -4 -10 -1 0 2 -3 11 -6 20 -3 9 -2 16 4 16 5 0
12 -7 15 -15z m14887 -345 c0 -5 -5 -10 -11 -10 -5 0 -7 5 -4 10 3 6 8 10 11
10 2 0 4 -4 4 -10z m-5000 -60 c0 -5 -2 -10 -4 -10 -3 0 -8 5 -11 10 -3 6 -1
10 4 10 6 0 11 -4 11 -10z m-19700 -100 c0 -5 -4 -10 -10 -10 -5 0 -10 5 -10
10 0 6 5 10 10 10 6 0 10 -4 10 -10z m12550 -80 c0 -5 -7 -10 -16 -10 -8 0
-12 5 -9 10 3 6 10 10 16 10 5 0 9 -4 9 -10z m22290 -10 c0 -5 -4 -10 -10 -10
-5 0 -10 5 -10 10 0 6 5 10 10 10 6 0 10 -4 10 -10z m-5020 -64 c0 -11 -19
-15 -25 -6 -3 5 1 10 9 10 9 0 16 -2 16 -4z m-29175 -76 c3 -5 1 -10 -4 -10
-6 0 -11 5 -11 10 0 6 2 10 4 10 3 0 8 -4 11 -10z m18055 0 c0 -5 -2 -10 -4
-10 -3 0 -8 5 -11 10 -3 6 -1 10 4 10 6 0 11 -4 11 -10z m5929 -90 l81 -79 0
-70 c0 -67 -1 -69 -27 -76 -16 -4 -149 -6 -298 -5 -148 1 -280 2 -293 1 -22
-1 -23 -2 -20 -123 l3 -123 262 -5 261 -5 76 -73 76 -72 0 -264 0 -263 -72
-70 -73 -70 -485 -6 c-315 -4 -489 -2 -495 4 -5 6 -10 55 -10 110 l0 100 51
49 51 49 344 1 c189 0 347 4 352 9 4 4 6 52 5 107 l-3 99 -37 3 c-26 2 -39 9
-43 22 -5 17 -23 19 -295 22 l-289 3 -46 45 -45 44 0 310 0 310 47 48 47 48
397 0 397 0 81 -80z m1691 32 l50 -48 0 -596 0 -595 -50 -47 -49 -46 -453 0
-454 0 -43 44 -44 45 2 603 1 603 45 43 44 42 450 0 451 0 50 -48z m-19290
-142 c0 -5 -4 -10 -10 -10 -5 0 -10 5 -10 10 0 6 5 10 10 10 6 0 10 -4 10 -10z
m5860 -44 c0 -11 -19 -15 -25 -6 -3 5 1 10 9 10 9 0 16 -2 16 -4z m-5160 -40
c0 -11 -19 -15 -25 -6 -3 5 1 10 9 10 9 0 16 -2 16 -4z m4975 -296 c3 -5 1
-10 -4 -10 -6 0 -11 5 -11 10 0 6 2 10 4 10 3 0 8 -4 11 -10z m6435 0 c0 -5
-4 -10 -10 -10 -5 0 -10 5 -10 10 0 6 5 10 10 10 6 0 10 -4 10 -10z m-12870
-110 c0 -5 -4 -10 -10 -10 -5 0 -10 5 -10 10 0 6 5 10 10 10 6 0 10 -4 10 -10z
m22040 -20 c0 -5 -4 -10 -10 -10 -5 0 -10 5 -10 10 0 6 5 10 10 10 6 0 10 -4
10 -10z m-470 -220 c0 -5 -2 -10 -4 -10 -3 0 -8 5 -11 10 -3 6 -1 10 4 10 6 0
11 -4 11 -10z m-20740 -120 c0 -5 -2 -10 -4 -10 -3 0 -8 5 -11 10 -3 6 -1 10
4 10 6 0 11 -4 11 -10z m18040 -173 l0 -73 -46 -46 c-51 -52 -82 -63 -154 -53
l-50 7 0 112 c0 62 3 116 7 119 3 4 60 7 125 7 l118 0 0 -73z m-24910 -1 c0
-11 -19 -15 -25 -6 -3 5 1 10 9 10 9 0 16 -2 16 -4z m34920 0 c0 -3 -4 -8 -10
-11 -5 -3 -10 -1 -10 4 0 6 5 11 10 11 6 0 10 -2 10 -4z m-36245 -526 c3 -5
-1 -10 -10 -10 -9 0 -13 5 -10 10 3 6 8 10 10 10 2 0 7 -4 10 -10z m535 -144
c0 -3 -4 -8 -10 -11 -5 -3 -10 -1 -10 4 0 6 5 11 10 11 6 0 10 -2 10 -4z
m18235 -176 c-3 -5 -10 -10 -16 -10 -5 0 -9 5 -9 10 0 6 7 10 16 10 8 0 12 -4
9 -10z m16845 -134 c0 -3 -4 -8 -10 -11 -5 -3 -10 -1 -10 4 0 6 5 11 10 11 6
0 10 -2 10 -4z m-20885 -16 c3 -5 1 -10 -4 -10 -6 0 -11 5 -11 10 0 6 2 10 4
10 3 0 8 -4 11 -10z m4633 -132 c2 -12 -3 -18 -16 -18 -46 0 -57 -69 -13 -80
36 -8 37 -27 2 -35 l-31 -7 0 -89 0 -89 -30 0 -30 0 0 89 c0 70 -3 90 -15 95
-8 3 -15 12 -15 20 0 7 7 16 15 20 8 3 15 17 15 31 0 54 36 87 90 82 15 -1 26
-9 28 -19z m-8778 -68 l0 -70 75 0 74 0 3 68 c3 65 4 67 31 70 l27 3 0 -161 0
-161 -27 3 c-27 3 -28 5 -31 71 l-3 67 -74 0 -75 0 0 -70 0 -70 -30 0 -30 0 0
160 0 160 30 0 30 0 0 -70z m1958 14 l3 -52 63 5 c85 7 96 -7 96 -130 l0 -88
-27 3 c-28 3 -28 4 -33 88 l-5 85 -31 3 c-47 5 -61 -17 -69 -103 -7 -70 -9
-75 -31 -75 l-24 0 0 161 0 160 28 -3 c25 -3 27 -7 30 -54z m706 25 c3 -17 6
-45 6 -61 0 -25 2 -27 19 -18 30 15 104 12 130 -6 57 -40 61 -135 9 -179 -28
-23 -36 -25 -121 -22 l-92 2 -3 158 -3 157 24 0 c19 0 26 -7 31 -31z m1006
-127 l0 -157 -95 -2 c-92 -3 -96 -2 -128 26 -28 26 -32 35 -32 81 0 46 4 55
34 82 31 28 38 30 97 26 l64 -4 0 46 c0 53 4 60 37 60 l23 0 0 -158z m2550 0
l0 -158 -96 -2 -97 -1 -33 33 c-28 28 -34 42 -34 76 0 35 6 48 35 77 34 34 37
35 100 31 l65 -4 0 46 c0 53 4 60 37 60 l23 0 0 -158z m277 142 c7 -18 -20
-44 -44 -44 -17 0 -27 25 -19 45 7 20 55 19 63 -1z m391 3 c19 -22 -5 -42 -45
-38 -14 1 -18 33 -6 44 11 11 40 8 51 -6z m2142 -148 l0 -160 -27 3 -28 3 -3
145 c-1 79 0 150 2 157 3 7 17 13 31 13 l25 0 0 -161z m570 3 l0 -158 -96 -2
-97 -1 -33 33 c-28 28 -34 42 -34 76 0 35 6 48 35 77 34 34 37 35 100 31 l65
-4 0 53 c0 52 0 53 30 53 l30 0 0 -158z m99 145 c15 -19 -10 -53 -33 -44 -23
9 -32 37 -15 48 20 12 35 11 48 -4z m381 3 c0 -26 -32 -71 -48 -68 -20 4 -19
58 1 70 18 11 47 10 47 -2z m475 -150 l0 -155 -27 -3 -28 -3 0 161 0 161 28
-3 27 -3 0 -155z m1766 150 c10 -6 19 -17 19 -24 0 -11 -16 -14 -67 -13 -64 2
-68 1 -71 -21 -5 -31 11 -48 66 -72 67 -30 82 -47 82 -92 0 -29 -7 -45 -26
-63 -23 -22 -36 -25 -99 -25 -76 0 -103 14 -91 45 4 12 11 13 31 5 39 -15 101
-12 115 5 24 29 4 61 -55 85 -95 38 -120 96 -66 151 26 25 37 29 86 29 31 0
65 -5 76 -10z m739 -148 l0 -159 -92 -1 c-105 -2 -131 9 -154 64 -20 49 -9 98
29 130 28 23 38 26 94 22 l63 -4 0 46 c0 53 4 60 37 60 l23 0 0 -158z m-11257
89 c4 -20 13 -31 28 -33 32 -4 34 -24 4 -32 -24 -6 -25 -10 -25 -76 0 -68 0
-69 28 -72 44 -5 34 -32 -14 -36 -57 -4 -75 19 -81 105 -4 45 -11 72 -21 80
-14 11 -14 14 1 31 9 10 17 25 17 34 0 20 10 28 35 28 17 0 24 -8 28 -29z
m10067 4 c0 -18 7 -26 25 -31 30 -7 33 -34 5 -41 -19 -5 -21 -12 -18 -71 3
-61 5 -67 28 -72 41 -10 31 -35 -16 -38 -59 -4 -78 21 -79 105 -1 53 -5 68
-20 80 -19 13 -19 15 -2 27 9 7 17 22 17 33 0 26 8 33 37 33 18 0 23 -5 23
-25z m573 -4 c4 -21 13 -30 29 -33 28 -4 30 -31 3 -37 -28 -5 -30 -11 -27 -80
4 -60 4 -61 34 -61 23 0 29 -4 26 -17 -2 -13 -15 -19 -44 -21 -58 -4 -75 19
-82 109 -3 47 -9 72 -18 76 -19 7 -17 20 6 43 11 11 20 27 20 35 0 9 9 15 24
15 18 0 25 -7 29 -29z m1280 0 c4 -20 13 -31 28 -33 32 -4 34 -24 4 -32 -24
-6 -25 -10 -25 -76 0 -68 0 -69 28 -72 16 -2 27 -9 27 -18 0 -20 -64 -25 -88
-8 -20 15 -36 73 -37 130 0 24 -6 41 -17 47 -17 10 -17 12 0 25 9 7 17 22 17
33 0 25 8 33 35 33 17 0 24 -8 28 -29z m-13260 -51 c36 -29 52 -81 37 -125
-17 -51 -56 -75 -124 -75 -47 0 -61 4 -88 29 -29 26 -33 35 -33 81 0 46 4 55
33 81 28 25 40 29 91 29 43 0 65 -5 84 -20z m280 8 c34 -13 57 -55 57 -104 0
-28 -8 -44 -35 -71 -35 -35 -37 -36 -100 -30 l-65 6 0 -54 c0 -54 0 -55 -30
-55 l-30 0 0 158 0 158 88 2 c48 1 100 -4 115 -10z m477 -17 c52 -52 52 -113
-2 -163 -26 -24 -38 -28 -90 -28 -55 0 -63 3 -94 34 -27 27 -34 42 -34 73 1
78 41 112 133 113 51 0 62 -4 87 -29z m285 7 c11 -16 15 -47 15 -111 l0 -88
-27 3 c-28 3 -28 4 -33 88 l-5 85 -31 3 c-47 5 -61 -17 -69 -103 -7 -70 -9
-75 -31 -75 -24 0 -24 1 -24 108 l0 109 95 1 c87 2 95 0 110 -20z m869 -4 c18
-18 26 -37 26 -60 l0 -34 -91 0 c-80 0 -90 -2 -87 -17 5 -28 48 -44 106 -40
49 3 53 2 50 -17 -3 -19 -10 -21 -81 -21 -76 0 -80 1 -108 33 -20 22 -29 43
-29 67 0 77 43 114 131 115 48 0 60 -4 83 -26z m711 0 c22 -24 25 -36 25 -109
l0 -82 -86 -1 c-78 -1 -88 1 -110 23 -33 33 -32 84 1 115 20 19 32 22 75 18
34 -4 50 -2 47 6 -2 6 -31 12 -65 14 -34 2 -62 6 -62 10 0 21 30 32 87 32 56
0 67 -3 88 -26z m271 5 c16 -17 19 -37 19 -108 l0 -86 -27 -3 -28 -3 0 71 c0
85 -11 110 -47 110 -43 0 -63 -26 -63 -84 0 -75 -9 -98 -34 -94 -19 3 -21 10
-24 97 -1 52 -1 99 1 106 3 6 40 11 94 13 80 1 92 -1 109 -19z m419 -31 c8
-28 15 -58 15 -65 0 -33 17 -7 34 52 16 57 22 65 42 65 26 0 36 -16 54 -89 14
-52 22 -46 44 32 14 50 20 57 41 57 14 0 25 -5 25 -11 0 -7 -14 -56 -31 -111
-29 -95 -31 -99 -57 -96 -23 3 -30 12 -47 61 -11 31 -22 57 -25 57 -3 0 -14
-26 -25 -57 -16 -46 -25 -59 -44 -61 -30 -5 -35 4 -67 108 -15 47 -29 91 -31
98 -4 8 5 12 26 12 28 0 31 -4 46 -52z m452 37 c30 -21 46 -85 38 -150 l-7
-52 -83 -2 c-104 -1 -130 14 -130 79 0 60 31 84 103 78 35 -3 51 -1 49 6 -2 6
-31 12 -65 14 -58 3 -76 14 -55 35 13 14 128 7 150 -8z m331 -116 c-3 -124 -4
-130 -30 -155 -44 -45 -188 -48 -188 -4 0 18 5 19 63 13 66 -6 78 0 91 42 5
19 1 20 -65 20 -67 0 -72 2 -100 33 -45 50 -38 120 15 164 17 14 40 17 119 16
l99 -1 -4 -128z m248 97 c28 -28 34 -42 34 -76 0 -34 -6 -48 -34 -76 -30 -30
-40 -34 -87 -34 -71 0 -114 26 -130 78 -24 82 30 142 128 142 49 0 59 -4 89
-34z m269 20 c22 -16 36 -94 28 -159 -5 -45 -8 -48 -32 -45 -25 3 -26 5 -31
88 l-5 85 -30 3 c-50 4 -59 -9 -65 -95 -5 -76 -6 -78 -32 -81 l-28 -3 0 109 0
109 88 1 c59 1 95 -3 107 -12z m549 -5 c24 -27 38 -97 31 -152 l-7 -46 -76 -2
c-96 -1 -108 3 -128 40 -35 69 10 123 96 117 30 -2 49 1 47 7 -2 6 -31 11 -65
13 -44 2 -62 7 -62 17 0 19 16 23 86 24 48 1 65 -3 78 -18z m281 -3 c11 -16
15 -47 15 -111 l0 -88 -27 3 c-28 3 -28 4 -33 88 -5 85 -5 85 -33 88 -47 6
-67 -21 -67 -89 0 -73 -6 -89 -36 -89 -24 0 -24 1 -24 108 l0 109 95 1 c87 2
95 0 110 -20z m590 -121 c0 -135 -1 -139 -24 -158 -17 -14 -36 -19 -60 -17
-42 4 -50 29 -11 38 25 6 25 7 27 120 4 151 7 162 41 158 l27 -3 0 -138z m238
132 c51 -23 74 -110 41 -157 -35 -50 -125 -68 -185 -36 -18 9 -37 31 -46 51
-34 82 19 153 114 153 29 0 63 -5 76 -11z m155 -96 c-3 -108 -3 -108 -28 -108
-25 0 -25 0 -28 108 l-3 107 31 0 31 0 -3 -107z m257 87 c12 -13 18 -39 19
-92 4 -93 -1 -108 -30 -108 -23 0 -24 2 -24 78 0 85 -8 102 -50 102 -43 0 -59
-27 -62 -105 -3 -67 -4 -70 -28 -70 -25 0 -25 0 -28 106 l-3 105 94 2 c81 1
97 -1 112 -18z m433 4 c26 -18 52 -65 52 -94 0 -34 -28 -78 -60 -95 -16 -8
-52 -15 -81 -15 -45 0 -55 4 -85 34 -28 28 -34 42 -34 76 0 34 6 48 34 76 31
31 39 34 93 34 37 0 67 -6 81 -16z m284 -2 c23 -25 31 -75 23 -143 -6 -54 -9
-60 -29 -57 -19 3 -21 10 -24 78 -3 81 -12 100 -47 100 -46 0 -64 -29 -67
-105 -3 -67 -4 -70 -28 -70 -25 0 -25 0 -28 106 l-3 106 94 1 c78 1 97 -1 109
-16z m272 -7 c18 -17 26 -34 26 -59 l0 -35 -87 -3 c-96 -3 -114 -16 -62 -44
22 -11 47 -15 81 -12 45 5 48 4 48 -18 0 -23 -4 -24 -60 -24 -83 0 -127 20
-146 66 -21 50 -11 96 27 128 25 21 41 26 88 26 48 0 63 -4 85 -25z m435 11
c33 -17 51 -54 51 -102 0 -28 -8 -44 -34 -70 -30 -30 -40 -34 -84 -34 -28 0
-62 4 -76 10 -31 11 -66 65 -66 100 0 33 35 88 63 100 34 14 115 12 146 -4z
m717 -14 c19 -28 27 -110 17 -165 -5 -23 -10 -28 -32 -25 -25 3 -26 5 -31 88
-5 83 -5 85 -32 88 -55 6 -67 -10 -70 -96 -3 -76 -3 -77 -30 -80 l-28 -3 0
109 0 109 94 1 c92 2 94 1 112 -26z m418 -18 c9 -65 7 -146 -3 -162 -4 -8 -18
-12 -31 -10 -22 3 -22 7 -24 111 l-1 107 26 0 c24 0 27 -5 33 -46z m242 25
c15 -17 20 -40 22 -108 l4 -88 -87 -1 c-79 -1 -89 1 -111 23 -32 32 -32 78 1
110 19 20 34 25 75 25 27 0 50 5 50 10 0 10 -37 14 -92 10 -18 -1 -28 3 -28
13 0 23 11 27 80 27 55 0 70 -4 86 -21z m332 -5 c3 -20 -1 -21 -55 -20 -78 1
-80 -22 -4 -46 60 -20 71 -30 71 -70 0 -51 -79 -75 -159 -47 -36 13 -40 47 -6
41 75 -14 102 -13 108 2 7 18 6 19 -66 46 -31 12 -57 24 -58 28 0 4 -2 17 -5
29 -2 14 4 30 18 43 19 17 33 20 88 18 58 -3 65 -5 68 -24z m507 6 c23 -25 36
-93 28 -151 l-5 -47 -77 -1 c-42 0 -84 2 -94 5 -26 8 -48 58 -41 94 9 45 43
64 105 58 34 -4 49 -2 46 6 -2 6 -31 12 -65 14 -44 2 -62 7 -62 17 0 19 16 23
86 24 49 1 65 -3 79 -19z m227 14 c15 -9 -5 -34 -27 -34 -46 0 -64 -29 -67
-105 -3 -68 -4 -70 -30 -73 l-28 -3 0 109 0 109 72 1 c40 0 76 -2 80 -4z m254
-51 c3 -30 4 -88 2 -130 -4 -64 -9 -78 -31 -101 -22 -21 -38 -27 -92 -30 -66
-4 -95 6 -95 34 0 10 14 12 64 7 58 -5 64 -4 80 18 28 41 21 48 -39 42 -93
-10 -145 30 -145 109 1 81 42 107 162 106 l87 -1 7 -54z m238 46 c28 -13 61
-72 52 -95 -4 -11 -27 -14 -96 -14 -70 0 -90 -3 -90 -14 0 -28 50 -49 107 -44
50 4 54 3 51 -16 -3 -19 -10 -21 -81 -21 -76 0 -80 1 -108 33 -46 51 -37 130
19 165 31 19 110 22 146 6z m251 -5 c22 -23 13 -28 -53 -28 -45 -1 -57 -4 -60
-18 -2 -12 6 -19 31 -23 53 -10 97 -41 97 -68 0 -41 -35 -67 -88 -66 -63 1
-96 12 -100 31 -3 14 6 16 60 15 51 -2 63 1 66 15 2 13 -9 21 -49 32 -28 9
-58 21 -65 27 -22 18 -17 66 8 83 31 22 131 22 153 0z m845 -62 c0 -47 5 -83
12 -90 18 -18 49 -14 75 10 20 18 23 31 23 90 0 66 1 68 25 68 21 0 25 -5 26
-32 5 -161 2 -189 -21 -195 -11 -3 -17 -9 -14 -14 3 -5 0 -9 -5 -9 -6 0 -11 8
-11 19 0 17 -6 18 -62 14 -54 -5 -66 -2 -81 15 -25 28 -35 76 -29 145 4 55 5
57 33 57 l29 0 0 -78z m714 47 c15 -18 26 -43 26 -60 l0 -29 -90 0 c-72 0 -90
-3 -90 -14 0 -38 94 -61 141 -35 19 9 20 8 17 -18 l-3 -28 -77 0 c-71 0 -79 2
-107 29 -26 25 -31 37 -31 77 0 41 4 51 35 78 31 27 43 31 94 31 54 0 62 -3
85 -31z m268 13 c18 -20 30 -112 21 -165 -5 -31 -9 -38 -27 -35 -19 3 -21 10
-24 78 -3 83 -12 100 -52 100 -43 0 -59 -27 -62 -105 -3 -67 -4 -70 -28 -70
-25 0 -25 0 -28 106 l-3 106 94 1 c78 1 97 -1 109 -16z m573 -2 c0 -8 -14 -17
-35 -21 -48 -10 -60 -32 -60 -112 l0 -68 -27 3 -28 3 -3 107 -3 106 78 -1 c61
-2 78 -5 78 -17z m87 -67 l3 -88 37 -3 c51 -4 68 23 68 111 0 67 0 68 25 65
14 -2 25 -6 25 -10 0 -5 0 -52 0 -106 l0 -98 -89 -2 c-113 -2 -124 7 -132 117
-6 82 1 101 37 101 22 0 23 -3 26 -87z m414 62 c23 -23 25 -31 22 -107 -3 -82
-3 -83 -30 -86 l-28 -3 0 71 c0 39 -5 80 -10 91 -13 23 -47 25 -78 3 -19 -13
-22 -25 -22 -77 0 -70 -9 -91 -36 -85 -17 3 -19 14 -22 97 -1 52 -1 100 2 106
3 8 35 12 91 13 80 1 89 -1 111 -23z m-691 -55 c0 -11 -15 -16 -60 -18 -32 -2
-71 0 -85 3 -24 6 -25 7 -5 21 28 21 150 16 150 -6z m-8735 -127 c0 -22 -42
-73 -60 -73 -24 0 -26 22 -4 55 15 23 64 36 64 18z m8360 -93 c0 -5 -5 -10
-11 -10 -5 0 -7 5 -4 10 3 6 8 10 11 10 2 0 4 -4 4 -10z m-9538 -22 c-9 -9
-15 -9 -24 0 -9 9 -7 12 12 12 19 0 21 -3 12 -12z m3378 -88 c0 -5 -4 -10 -10
-10 -5 0 -10 5 -10 10 0 6 5 10 10 10 6 0 10 -4 10 -10z m18940 -50 c0 -5 -5
-10 -11 -10 -5 0 -7 5 -4 10 3 6 8 10 11 10 2 0 4 -4 4 -10z m-13482 -42 c2
-12 -5 -17 -25 -20 -20 -2 -30 -11 -37 -31 -14 -38 3 -51 64 -49 l50 1 0 -74
c0 -93 5 -105 41 -105 50 0 69 30 69 110 l0 70 30 0 30 0 0 -64 c0 -105 -10
-156 -31 -156 -10 0 -21 5 -24 10 -4 7 -12 7 -25 0 -10 -5 -37 -10 -60 -10
-31 0 -47 6 -65 26 -21 23 -25 37 -25 91 0 64 0 64 -27 61 -28 -3 -28 -3 -31
-91 l-3 -88 -27 3 c-27 3 -27 4 -30 87 -2 65 -7 87 -20 97 -16 11 -16 13 1 31
9 11 17 32 17 47 0 42 42 78 88 74 25 -2 38 -8 40 -20z m1310 0 c3 -14 -3 -18
-22 -18 -18 0 -30 -8 -38 -24 -17 -39 -4 -58 39 -54 35 3 38 5 44 42 4 23 16
47 29 58 24 19 80 24 96 9 5 -5 25 -11 44 -13 l35 -3 0 -155 0 -155 -27 -3
-28 -3 0 90 0 91 -45 0 -45 0 0 -90 0 -90 -30 0 -30 0 0 89 c0 50 -4 93 -10
96 -5 3 -25 3 -45 -1 l-35 -6 0 -90 0 -89 -27 3 c-28 3 -28 4 -31 88 -2 61 -7
87 -17 93 -19 10 -19 33 -1 40 7 3 16 23 20 46 8 49 37 73 86 69 24 -2 36 -9
38 -20z m-14698 -52 l0 -54 63 5 c55 5 64 3 82 -17 16 -18 20 -36 20 -108 0
-86 0 -87 -25 -87 -24 0 -25 3 -28 65 -4 101 -7 110 -45 110 -54 0 -62 -12
-67 -97 -5 -75 -6 -78 -30 -78 l-25 0 -3 158 -3 157 31 0 c30 0 30 -1 30 -54z
m755 -38 c0 -49 2 -88 5 -88 3 0 24 18 45 40 27 28 48 40 67 40 15 0 28 -3 28
-6 0 -3 -18 -26 -40 -51 -22 -25 -40 -49 -40 -52 0 -4 20 -27 45 -51 25 -24
45 -48 45 -52 0 -4 -11 -8 -25 -8 -17 0 -43 16 -74 45 l-49 46 -6 -46 c-6 -39
-10 -45 -32 -45 l-24 0 0 161 0 160 28 -3 27 -3 0 -87z m643 37 l3 -51 62 4
c84 5 100 -12 105 -113 4 -80 -7 -115 -38 -115 -18 0 -20 7 -20 76 0 90 -10
114 -49 114 -41 0 -55 -24 -61 -104 -5 -68 -6 -71 -30 -71 l-25 0 -3 145 c-1
79 0 150 3 158 3 7 15 12 27 10 20 -3 23 -10 26 -53z m1294 16 c-2 -19 -1 -49
3 -67 l6 -34 69 0 70 0 0 70 0 70 30 0 30 0 0 -160 0 -160 -30 0 -30 0 0 70 0
70 -75 0 -75 0 0 -71 0 -70 -27 3 -28 3 -3 158 -3 158 33 -3 c31 -3 33 -5 30
-37z m808 -52 l0 -92 45 42 c43 40 86 53 100 31 3 -5 2 -10 -3 -10 -5 0 -26
-21 -47 -46 l-37 -45 46 -44 c25 -25 46 -49 46 -55 0 -24 -49 -6 -95 35 l-50
45 -5 -43 c-4 -37 -8 -42 -32 -45 l-28 -3 0 160 0 161 30 0 30 0 0 -91z m267
71 c10 -10 41 -55 68 -99 28 -44 53 -80 58 -81 4 0 7 45 7 100 l0 100 30 0 30
0 0 -160 0 -160 -27 0 c-24 0 -38 15 -98 103 l-70 102 -3 -102 -3 -103 -29 0
-30 0 0 160 0 160 25 0 c13 0 32 -9 42 -20z m293 -140 l0 -160 -30 0 -30 0 0
160 0 160 30 0 30 0 0 -160z m280 140 c0 -17 -7 -20 -45 -20 l-44 0 -3 -137
-3 -138 -27 -3 -28 -3 0 140 0 141 -44 0 c-45 0 -63 11 -51 30 4 6 57 10 126
10 112 0 119 -1 119 -20z m237 5 c34 -24 47 -76 29 -119 -8 -20 -22 -39 -31
-42 -22 -9 -18 -43 9 -91 26 -46 25 -53 -11 -53 -20 0 -29 11 -51 60 -30 65
-37 71 -69 59 -20 -7 -23 -15 -23 -64 0 -56 0 -56 -27 -53 l-28 3 -3 145 c-1
79 0 150 2 157 8 20 175 18 203 -2z m307 7 c12 -19 -7 -52 -29 -52 -24 0 -42
30 -30 50 7 12 52 13 59 2z m496 -45 l0 -53 63 4 c57 4 66 1 95 -23 55 -46 52
-130 -5 -175 -21 -16 -40 -19 -119 -18 l-94 2 0 158 0 158 30 0 c30 0 30 -1
30 -53z m780 -40 l5 -88 40 40 c27 29 47 41 67 41 15 0 28 -3 28 -6 0 -4 -18
-26 -40 -50 -22 -24 -40 -48 -40 -53 0 -4 20 -27 45 -50 51 -47 56 -61 20 -61
-17 0 -43 16 -75 46 -46 43 -50 45 -50 23 0 -48 -12 -70 -34 -67 -20 3 -21 9
-24 161 l-3 158 28 -3 c28 -3 28 -4 33 -91z m791 77 c11 -14 10 -18 -6 -30
-25 -18 -44 -18 -51 1 -15 39 30 62 57 29z m276 -34 c1 -25 2 -51 2 -58 1 -9
6 -10 20 -2 11 5 40 10 64 10 68 0 82 -22 82 -129 l0 -86 -27 -3 -28 -3 0 65
c0 88 -12 116 -48 116 -45 0 -62 -28 -69 -109 -5 -66 -8 -72 -27 -69 -20 3
-21 9 -24 148 -1 79 0 150 3 158 3 7 15 12 27 10 20 -3 23 -10 25 -48z m1351
23 c-3 -32 -44 -46 -54 -19 -10 26 4 46 31 46 23 0 26 -4 23 -27z m965 21 c3
-3 3 -12 0 -20 -4 -10 -23 -14 -63 -14 -62 0 -70 -7 -70 -56 0 -22 4 -24 51
-24 43 0 55 -5 80 -29 19 -20 29 -40 29 -60 0 -74 -43 -112 -127 -110 -72 1
-97 11 -101 38 -3 21 -1 23 20 16 54 -18 109 -17 129 0 22 21 24 62 4 88 -11
16 -25 18 -77 15 -73 -4 -74 -2 -63 98 l7 64 87 0 c48 0 90 -3 94 -6z m365
-22 c75 -70 59 -242 -26 -281 -29 -14 -94 -14 -124 0 -64 29 -95 141 -63 225
22 59 62 84 131 84 43 0 57 -5 82 -28z m782 -34 c4 -48 7 -56 20 -48 8 5 36
10 63 10 43 0 49 -3 67 -32 14 -24 20 -51 20 -95 0 -77 -6 -93 -35 -93 -22 0
-24 5 -30 68 -3 37 -7 76 -8 87 -2 23 -45 32 -76 16 -16 -9 -21 -26 -27 -92
-6 -74 -8 -80 -28 -77 -20 3 -21 9 -24 161 l-3 158 28 -3 c26 -3 28 -7 33 -60z
m265 32 c0 -18 -6 -26 -23 -28 -24 -4 -38 18 -28 44 3 9 15 14 28 12 17 -2 23
-10 23 -28z m363 -26 l3 -50 58 4 c50 4 62 1 80 -17 18 -18 21 -33 21 -112 l0
-90 -27 3 c-28 3 -28 4 -33 88 l-5 85 -31 3 c-47 5 -61 -16 -69 -102 -6 -72
-8 -76 -31 -76 l-24 0 0 161 0 160 28 -3 c25 -3 27 -7 30 -54z m426 50 c23 -9
20 -31 -5 -45 -17 -9 -25 -8 -37 4 -28 29 0 57 42 41z m1964 -54 c2 -30 1
-101 -3 -158 -7 -98 -8 -103 -29 -100 -20 3 -21 8 -24 161 l-3 158 28 -3 c26
-3 28 -6 31 -58z m102 -97 l-5 -158 -25 0 -25 0 -3 145 c-1 79 0 150 2 157 3
7 18 13 33 13 l28 0 -5 -157z m1225 132 c0 -15 -8 -21 -32 -23 -27 -3 -33 0
-33 16 0 26 10 33 40 30 17 -2 25 -9 25 -23z m645 -86 l0 -110 -27 3 -28 3 -3
94 c-1 52 -1 100 2 108 3 7 17 13 31 13 l25 0 0 -111z m-14055 81 c3 -5 -1
-10 -10 -10 -9 0 -13 5 -10 10 3 6 8 10 10 10 2 0 7 -4 10 -10z m-382 -39 c4
-21 13 -30 29 -33 29 -4 30 -32 1 -36 -18 -3 -22 -11 -25 -55 -5 -71 0 -85 31
-89 15 -2 26 -9 26 -18 0 -19 -56 -26 -84 -10 -23 12 -41 67 -41 124 0 25 -6
44 -17 52 -17 13 -17 15 0 28 9 7 17 22 17 33 0 25 8 33 35 33 17 0 24 -8 28
-29z m5835 1 c2 -14 14 -27 29 -33 29 -11 26 -33 -6 -37 -20 -3 -22 -8 -19
-70 3 -65 4 -67 31 -70 20 -3 27 -8 25 -20 -5 -24 -80 -29 -99 -6 -7 9 -16 48
-20 87 -5 52 -11 74 -25 84 -18 14 -18 15 -1 27 9 7 17 22 17 33 0 27 10 34
40 31 17 -2 26 -10 28 -26z m-6687 -51 c21 -17 24 -29 27 -108 l4 -90 -91 -1
c-86 -1 -91 0 -110 25 -27 33 -27 73 0 107 18 22 28 26 77 26 53 1 56 2 37 16
-14 10 -32 13 -62 8 -35 -5 -43 -3 -43 9 0 21 15 25 81 26 42 1 63 -4 80 -18z
m250 9 c10 -6 19 -17 19 -25 0 -12 -11 -14 -58 -9 -53 6 -61 4 -80 -17 -28
-29 -28 -59 -1 -94 19 -23 28 -26 63 -23 23 3 49 8 59 12 13 6 17 4 17 -11 0
-32 -21 -43 -79 -43 -96 0 -152 55 -137 134 10 54 55 86 122 86 31 0 64 -5 75
-10z m478 -16 c17 -22 21 -41 21 -109 l0 -82 -86 -1 c-78 -1 -88 1 -110 23
-32 33 -32 78 2 112 22 22 32 25 75 21 34 -4 49 -2 46 6 -2 6 -26 12 -53 14
-68 4 -79 8 -64 27 9 11 32 15 80 15 62 0 71 -2 89 -26z m701 -1 c22 -20 33
-40 37 -69 5 -37 2 -45 -32 -83 -36 -39 -40 -41 -97 -41 -55 0 -63 3 -94 34
-28 28 -34 42 -34 76 0 34 6 48 34 76 31 31 39 34 95 34 52 0 65 -4 91 -27z
m280 0 c18 -23 20 -38 18 -107 -3 -80 -3 -81 -30 -84 l-28 -3 0 71 c0 86 -11
110 -49 110 -42 0 -58 -26 -66 -107 -6 -61 -10 -73 -25 -73 -10 0 -21 7 -24
16 -7 19 -8 167 -1 186 4 10 30 14 95 16 85 2 90 1 110 -25z m228 1 c3 -20 -1
-21 -55 -20 -74 1 -80 -22 -12 -44 79 -26 98 -58 63 -109 -15 -21 -22 -23 -86
-19 -46 2 -72 9 -78 18 -14 21 -6 36 16 31 54 -10 99 -6 102 11 2 12 -11 21
-50 33 -79 26 -100 64 -56 105 19 17 33 20 88 18 58 -3 65 -5 68 -24z m787 20
c29 -11 45 -60 45 -137 l0 -74 -89 -1 c-86 -1 -91 0 -110 25 -29 36 -27 78 5
110 22 22 32 25 79 21 41 -3 52 -2 48 9 -3 9 -24 13 -64 13 -43 0 -59 4 -59
13 0 8 3 17 7 20 8 9 116 9 138 1z m266 -4 c10 -6 19 -17 19 -25 0 -12 -10
-13 -44 -9 -60 9 -90 -1 -104 -31 -17 -38 -15 -53 13 -80 27 -27 68 -32 110
-13 35 16 43 3 15 -27 -50 -54 -182 -21 -202 50 -16 58 11 119 62 138 26 10
111 7 131 -3z m1507 -50 c2 -30 1 -79 -3 -108 -6 -50 -8 -53 -33 -50 l-27 3
-3 108 -3 108 33 -3 c32 -3 33 -4 36 -58z m210 34 c3 -20 -1 -21 -55 -20 -76
1 -77 -19 -3 -47 30 -11 58 -25 62 -31 14 -20 8 -56 -12 -76 -38 -38 -160 -20
-168 24 -3 16 0 18 19 12 47 -14 94 -17 109 -6 13 9 12 12 -5 25 -11 9 -36 20
-57 25 -50 14 -71 36 -63 68 10 41 33 52 105 49 58 -2 65 -4 68 -23z m697 0
c22 -24 25 -36 25 -109 l0 -82 -92 1 c-92 1 -92 1 -114 33 -43 65 2 127 88
121 29 -2 47 1 45 7 -2 6 -29 11 -60 13 -38 2 -57 7 -57 16 0 22 12 26 77 26
56 0 67 -3 88 -26z m246 16 c10 -6 19 -17 19 -24 0 -11 -13 -13 -58 -9 -52 5
-61 3 -80 -18 -12 -12 -22 -35 -22 -50 0 -60 68 -85 143 -54 13 5 17 2 17 -12
0 -10 -5 -24 -12 -31 -17 -17 -113 -15 -148 3 -32 17 -60 61 -60 95 0 29 26
76 52 94 26 18 119 22 149 6z m551 -54 c10 -33 20 -61 22 -63 2 -3 12 24 23
59 16 55 22 63 45 66 25 3 29 -1 45 -57 10 -34 20 -61 23 -61 3 0 14 26 25 58
17 49 24 57 48 60 15 2 27 0 26 -5 0 -4 -15 -53 -33 -108 -31 -97 -33 -100
-61 -100 -27 0 -31 5 -48 58 -11 31 -22 57 -26 57 -3 0 -13 -23 -21 -51 -30
-104 -72 -92 -112 32 -35 110 -35 121 -1 117 24 -3 30 -11 45 -62z m358 -47
l0 -110 -27 3 -28 3 -3 94 c-1 52 -1 100 2 108 3 7 17 13 31 13 l25 0 0 -111z
m736 51 c12 -30 26 -56 31 -57 6 -2 20 23 33 57 20 54 25 60 51 60 16 0 29 -4
29 -8 0 -13 -80 -196 -90 -206 -5 -5 -19 -6 -32 -3 -18 5 -32 27 -60 96 -46
109 -47 123 -11 119 22 -2 31 -12 49 -58z m368 33 c28 -28 42 -65 31 -82 -3
-7 -44 -11 -96 -11 -90 0 -102 -6 -73 -34 22 -22 58 -30 105 -22 38 6 40 5 37
-16 -3 -21 -9 -23 -65 -26 -76 -4 -117 15 -140 62 -22 46 -11 98 28 130 25 21
41 26 88 26 50 0 62 -4 85 -27z m231 7 c0 -8 -14 -17 -34 -21 -52 -11 -65 -30
-69 -110 -4 -65 -6 -70 -26 -67 -20 3 -21 9 -24 109 l-3 106 78 -1 c61 -1 78
-4 78 -16z m175 -3 c0 -21 -4 -23 -52 -22 -42 0 -53 -4 -56 -17 -2 -12 6 -19
31 -23 86 -16 120 -67 77 -113 -37 -39 -170 -23 -170 20 0 17 4 19 23 13 12
-4 40 -8 62 -9 30 -1 40 3 43 16 2 13 -8 20 -40 28 -85 23 -108 57 -72 108 13
19 24 22 85 22 65 0 69 -1 69 -23z m120 -88 l0 -110 -27 3 -28 3 -3 108 -3
107 31 0 30 0 0 -111z m264 82 c20 -21 30 -43 33 -75 5 -42 3 -48 -30 -81 -31
-31 -41 -35 -85 -35 -68 0 -98 13 -123 52 -35 56 -12 135 46 159 11 4 45 8 76
8 48 1 59 -3 83 -28z m276 9 c17 -17 20 -34 20 -111 l0 -90 -27 3 c-28 3 -28
4 -33 88 l-5 85 -31 3 c-45 4 -61 -21 -66 -103 -4 -67 -6 -70 -31 -73 l-27 -3
0 108 0 109 90 2 c78 1 94 -2 110 -18z m1210 -37 c9 -29 18 -55 21 -58 4 -3
12 16 19 42 16 59 26 73 55 73 18 0 24 -10 39 -62 19 -68 27 -67 49 7 14 49
31 63 61 52 11 -4 7 -27 -18 -103 -44 -135 -79 -152 -111 -52 -26 77 -26 77
-49 7 -19 -55 -25 -64 -48 -67 -22 -3 -28 3 -42 38 -9 22 -25 72 -36 111 l-19
70 32 -3 c28 -3 33 -8 47 -55z m630 -54 l0 -110 -27 3 -28 3 -3 94 c-1 52 -1
100 2 108 3 7 17 13 31 13 l25 0 0 -111z m244 95 c28 -27 18 -34 -43 -28 -51
6 -61 4 -80 -15 -27 -27 -27 -75 0 -102 16 -16 30 -20 62 -17 23 3 50 8 60 12
12 6 17 4 17 -7 0 -30 -30 -47 -81 -47 -87 0 -139 42 -139 113 0 31 7 46 34
73 31 31 39 34 94 34 42 0 65 -5 76 -16z m554 -74 c4 -109 -2 -130 -32 -130
-30 0 -31 4 -35 123 l-3 98 33 -3 34 -3 3 -85z m210 64 c3 -20 -1 -21 -55 -20
-71 1 -81 -22 -18 -42 68 -21 85 -33 85 -61 0 -15 -7 -37 -16 -49 -12 -18 -25
-22 -67 -22 -29 0 -63 6 -77 13 -30 15 -34 44 -5 39 76 -13 92 -13 104 2 14
16 2 24 -86 56 -34 13 -46 40 -33 75 12 30 23 34 100 32 58 -2 65 -4 68 -23z
m432 -7 c17 -26 20 -46 18 -107 -3 -74 -4 -75 -30 -78 l-28 -3 0 65 c0 84 -12
116 -44 116 -47 0 -65 -28 -68 -105 -3 -67 -4 -70 -28 -70 -25 0 -25 1 -28 94
-1 52 -1 100 2 106 3 8 37 12 95 13 l92 2 19 -33z m264 6 c49 -49 47 -124 -5
-167 -57 -48 -171 -29 -204 34 -19 37 -19 63 0 100 24 46 52 60 121 60 53 0
65 -4 88 -27z m115 -36 c8 -31 19 -56 24 -54 6 2 17 27 26 57 14 47 20 55 43
58 25 3 28 -1 44 -55 18 -63 34 -90 34 -57 0 11 7 41 16 67 14 42 19 47 46 47
22 0 29 -4 25 -14 -3 -8 -11 -34 -17 -58 -7 -23 -21 -66 -32 -95 -16 -43 -24
-53 -43 -53 -19 0 -27 10 -44 55 -12 31 -21 61 -21 67 0 24 -17 -8 -34 -64
-15 -50 -20 -58 -41 -58 -29 0 -37 13 -70 116 -32 100 -31 106 2 102 24 -3 29
-10 42 -61z m1160 -4 c13 -35 28 -63 32 -63 4 0 21 29 38 65 25 55 34 65 55
65 l26 0 -24 -62 c-82 -219 -99 -243 -166 -236 -44 4 -51 26 -11 34 67 14 62
47 -37 257 -2 5 11 7 29 5 31 -3 35 -8 58 -65z m549 51 c12 -8 29 -28 37 -44
25 -48 19 -78 -24 -121 -34 -35 -44 -39 -87 -39 -84 0 -136 45 -136 116 0 31
7 44 36 71 32 29 42 33 94 33 36 0 66 -6 80 -16z m549 -54 c3 -36 1 -84 -2
-108 -6 -40 -9 -43 -33 -40 -26 3 -27 5 -26 63 2 161 1 157 31 153 25 -3 27
-6 30 -68z m258 46 c19 -29 30 -112 21 -160 -6 -29 -11 -36 -31 -36 -22 0 -24
5 -30 68 -3 37 -7 76 -8 87 -1 14 -10 21 -32 23 -52 5 -66 -14 -72 -101 -6
-72 -8 -78 -27 -75 -19 3 -21 10 -24 97 -1 52 -1 100 2 106 2 7 38 12 95 13
85 2 91 1 106 -22z m248 13 c31 -14 50 -48 45 -80 -3 -23 -7 -24 -90 -27 -69
-2 -88 -6 -88 -17 0 -30 47 -48 110 -42 63 5 71 0 43 -28 -14 -14 -30 -16 -86
-12 -58 4 -73 9 -98 33 -23 22 -29 36 -29 72 0 37 6 50 34 78 30 30 40 34 85
34 27 0 61 -5 74 -11z m121 -155 c9 -3 16 -15 16 -25 0 -14 -7 -19 -30 -19
-23 0 -30 5 -30 19 0 11 6 22 13 24 6 3 13 6 14 6 1 1 8 -2 17 -5z m-13246
-37 c2 -10 -3 -17 -12 -17 -18 0 -29 16 -21 31 9 14 29 6 33 -14z m7230 0 c2
-10 -3 -17 -12 -17 -18 0 -29 16 -21 31 9 14 29 6 33 -14z m402 -8 c0 -22 -42
-69 -62 -69 -17 0 -19 4 -13 27 4 16 11 34 17 40 13 16 58 17 58 2z m-3425
-149 c3 -5 1 -10 -4 -10 -6 0 -11 5 -11 10 0 6 2 10 4 10 3 0 8 -4 11 -10z
m-11125 -160 c0 -5 -4 -10 -10 -10 -5 0 -10 5 -10 10 0 6 5 10 10 10 6 0 10
-4 10 -10z m28530 -60 c0 -5 -2 -10 -4 -10 -3 0 -8 5 -11 10 -3 6 -1 10 4 10
6 0 11 -4 11 -10z m-30700 -224 c0 -3 -4 -8 -10 -11 -5 -3 -10 -1 -10 4 0 6 5
11 10 11 6 0 10 -2 10 -4z m4300 -166 c0 -5 -4 -10 -10 -10 -5 0 -10 5 -10 10
0 6 5 10 10 10 6 0 10 -4 10 -10z m13305 -427 l35 -38 0 -473 c0 -519 2 -505
-61 -538 -24 -12 -545 -14 -3950 -14 l-3921 0 -34 34 -34 34 -1 214 c-1 519 3
742 13 762 6 12 20 29 32 38 20 17 243 18 3954 18 l3933 0 34 -37z m1640 15
c19 -13 43 -40 55 -60 20 -36 21 -47 18 -477 -3 -426 -4 -440 -24 -467 -11
-15 -33 -37 -48 -48 -27 -21 -38 -21 -565 -21 l-537 0 -37 25 c-68 47 -68 43
-65 535 3 436 3 440 25 471 46 65 33 64 616 64 l527 0 35 -22z m4990 -98 c3
-5 1 -10 -4 -10 -6 0 -11 5 -11 10 0 6 2 10 4 10 3 0 8 -4 11 -10z m1285 -180
c0 -5 -4 -10 -10 -10 -5 0 -10 5 -10 10 0 6 5 10 10 10 6 0 10 -4 10 -10z
m-29280 -210 c0 -5 -5 -10 -11 -10 -5 0 -7 5 -4 10 3 6 8 10 11 10 2 0 4 -4 4
-10z m6240 0 c0 -5 -2 -10 -4 -10 -3 0 -8 5 -11 10 -3 6 -1 10 4 10 6 0 11 -4
11 -10z m-2740 -10 c0 -5 -2 -10 -4 -10 -3 0 -8 5 -11 10 -3 6 -1 10 4 10 6 0
11 -4 11 -10z m32760 -114 c0 -3 -4 -8 -10 -11 -5 -3 -10 -1 -10 4 0 6 5 11
10 11 6 0 10 -2 10 -4z m-3060 -20 c0 -11 -19 -15 -25 -6 -3 5 1 10 9 10 9 0
16 -2 16 -4z m-28240 -216 c0 -5 -4 -10 -10 -10 -5 0 -10 5 -10 10 0 6 5 10
10 10 6 0 10 -4 10 -10z m18300 -230 c0 -5 -4 -10 -10 -10 -5 0 -10 5 -10 10
0 6 5 10 10 10 6 0 10 -4 10 -10z m-6340 -60 c0 -5 -4 -10 -10 -10 -5 0 -10 5
-10 10 0 6 5 10 10 10 6 0 10 -4 10 -10z m-1340 -220 c0 -5 -2 -10 -4 -10 -3
0 -8 5 -11 10 -3 6 -1 10 4 10 6 0 11 -4 11 -10z m11080 -100 c0 -5 -2 -10 -4
-10 -3 0 -8 5 -11 10 -3 6 -1 10 4 10 6 0 11 -4 11 -10z m-27315 -230 c3 -5 1
-10 -4 -10 -6 0 -11 5 -11 10 0 6 2 10 4 10 3 0 8 -4 11 -10z m13960 -60 c3
-5 -1 -10 -10 -10 -9 0 -13 5 -10 10 3 6 8 10 10 10 2 0 7 -4 10 -10z m-5425
-4 c0 -3 -4 -8 -10 -11 -5 -3 -10 -1 -10 4 0 6 5 11 10 11 6 0 10 -2 10 -4z
m14617 -392 c-3 -3 -12 -4 -19 -1 -8 3 -5 6 6 6 11 1 17 -2 13 -5z m12853 -14
c0 -5 -2 -10 -4 -10 -3 0 -8 5 -11 10 -3 6 -1 10 4 10 6 0 11 -4 11 -10z
m-36000 -100 c0 -5 -2 -10 -4 -10 -3 0 -8 5 -11 10 -3 6 -1 10 4 10 6 0 11 -4
11 -10z m27395 -140 c3 -5 1 -10 -4 -10 -6 0 -11 5 -11 10 0 6 2 10 4 10 3 0
8 -4 11 -10z"/>
<path d="M16917 14124 c-23 -64 -23 -64 17 -64 19 0 37 3 39 8 3 4 -5 29 -17
56 l-21 48 -18 -48z"/>
<path d="M17193 14120 c-46 -19 -35 -109 16 -123 37 -9 66 15 69 60 5 62 -28
86 -85 63z"/>
<path d="M25166 14130 c-24 -60 -21 -70 19 -70 38 0 40 5 25 62 -15 52 -25 54
-44 8z"/>
<path d="M25440 14198 c-62 -32 -75 -137 -23 -178 39 -31 106 -28 132 7 40 50
40 101 -2 148 -27 30 -73 40 -107 23z"/>
<path d="M14643 14120 c-27 -11 -39 -53 -27 -89 8 -21 17 -27 47 -29 49 -4 67
11 67 59 0 28 -6 42 -22 53 -25 18 -33 19 -65 6z"/>
<path d="M15217 14114 c-4 -4 -7 -13 -7 -21 0 -9 16 -13 56 -13 47 0 55 3 52
18 -2 13 -15 18 -48 20 -25 2 -49 0 -53 -4z"/>
<path d="M17443 14120 c-47 -19 -40 -108 9 -121 44 -12 73 10 76 58 2 33 -1
44 -20 57 -25 18 -33 19 -65 6z"/>
<path d="M19815 14046 c-11 -8 -16 -19 -12 -30 10 -25 80 -18 85 8 7 33 -39
47 -73 22z"/>
<path d="M22035 14123 c-27 -6 -45 -31 -45 -64 0 -40 25 -61 69 -57 45 4 67
40 50 84 -15 41 -28 48 -74 37z"/>
<path d="M22273 14120 c-27 -11 -38 -49 -26 -87 8 -23 16 -29 47 -31 48 -4 66
11 66 59 0 28 -6 42 -22 53 -25 18 -33 19 -65 6z"/>
<path d="M22960 14117 c-36 -18 -48 -59 -26 -91 13 -21 25 -26 55 -26 33 0 40
4 50 28 16 39 4 81 -26 93 -29 11 -23 11 -53 -4z"/>
<path d="M20982 8568 c6 -18 28 -21 28 -4 0 9 -7 16 -16 16 -9 0 -14 -5 -12
-12z"/>
<path d="M26987 9203 c-4 -21 -7 -55 -7 -75 l0 -38 484 0 c377 0 487 -3 493
-12 4 -7 7 -71 8 -143 l0 -130 52 0 c29 1 56 4 60 9 4 4 9 97 10 207 2 198 2
200 -20 208 -12 4 -259 8 -548 10 l-526 3 -6 -39z"/>
<path d="M12720 8982 c0 -15 4 -20 16 -15 9 3 12 9 7 12 -4 3 -11 10 -15 15
-5 5 -8 0 -8 -12z"/>
<path d="M12721 8804 c0 -11 3 -14 6 -6 3 7 2 16 -1 19 -3 4 -6 -2 -5 -13z"/>
<path d="M12342 8214 c-13 -20 -19 -35 -12 -32 14 4 55 68 43 68 -4 0 -18 -16
-31 -36z"/>
<path d="M12270 8136 c-6 -9 -10 -21 -8 -28 3 -8 9 -4 17 10 15 28 9 39 -9 18z"/>
<path d="M12345 8140 c3 -5 8 -10 11 -10 2 0 4 5 4 10 0 6 -5 10 -11 10 -5 0
-7 -4 -4 -10z"/>
<path d="M12298 8135 c-3 -6 1 -20 11 -31 14 -17 19 -19 29 -7 10 11 9 13 -7
13 -11 0 -21 8 -23 18 -2 9 -6 12 -10 7z"/>
<path d="M12340 8054 c0 -8 5 -12 10 -9 6 3 10 10 10 16 0 5 -4 9 -10 9 -5 0
-10 -7 -10 -16z"/>
<path d="M12960 7920 c-259 -5 -267 -7 -327 -59 -20 -17 -23 -29 -23 -96 0
-42 5 -85 10 -96 6 -10 39 -33 73 -50 l62 -32 525 8 c289 4 527 9 530 12 9 8
5 291 -3 300 -5 4 -135 8 -290 9 -155 1 -289 3 -297 5 -8 3 -125 2 -260 -1z
m-150 -210 c0 -5 -4 -10 -9 -10 -6 0 -13 5 -16 10 -3 6 1 10 9 10 9 0 16 -4
16 -10z"/>
<path d="M12283 7760 c-1 -11 4 -20 12 -20 8 0 11 7 8 20 -3 11 -8 20 -12 20
-4 0 -7 -9 -8 -20z"/>
<path d="M12234 7695 c-4 -8 -12 -15 -20 -15 -9 0 -14 -11 -14 -29 0 -21 6
-30 21 -34 17 -4 19 -3 10 6 -17 17 -14 50 4 43 17 -6 57 23 49 36 -9 14 -44
9 -50 -7z"/>
<path d="M12216 7523 c-6 -14 -5 -15 5 -6 7 7 10 15 7 18 -3 3 -9 -2 -12 -12z"/>
<path d="M28040 6315 c0 -133 -3 -257 -6 -274 -6 -28 -10 -31 -45 -31 l-39 0
0 -110 0 -110 170 0 170 0 0 379 c0 362 -1 380 -19 386 -10 3 -66 5 -125 4
l-106 -2 0 -242z"/>
<path d="M14516 4361 c-26 -28 -24 -80 4 -103 31 -25 66 -23 95 7 30 30 31 54
4 89 -25 32 -77 36 -103 7z"/>
<path d="M15321 4354 c-12 -15 -21 -34 -21 -44 0 -30 39 -70 69 -70 45 0 71
26 71 70 0 29 -6 43 -22 54 -34 24 -73 20 -97 -10z"/>
<path d="M17870 4360 c-63 -63 32 -161 98 -100 46 43 15 120 -48 120 -17 0
-39 -9 -50 -20z"/>
<path d="M21250 4360 c-43 -43 -11 -120 50 -120 38 0 70 32 70 70 0 38 -32 70
-70 70 -17 0 -39 -9 -50 -20z"/>
<path d="M24711 4354 c-12 -15 -21 -34 -21 -44 0 -30 39 -70 69 -70 44 0 71
26 71 69 0 70 -77 99 -119 45z"/>
<path d="M12160 4360 c-43 -43 -11 -120 48 -120 57 0 87 68 52 113 -26 33 -71
36 -100 7z"/>
<path d="M12450 4360 c-11 -11 -20 -33 -20 -50 0 -62 73 -92 118 -50 46 43 15
120 -48 120 -17 0 -39 -9 -50 -20z"/>
<path d="M12906 4358 c-22 -31 -20 -60 5 -92 24 -31 68 -35 92 -8 23 25 22 85
-1 105 -27 25 -78 22 -96 -5z"/>
<path d="M14061 4367 c-16 -21 -3 -27 56 -27 39 0 53 4 53 14 0 27 -88 37
-109 13z"/>
<path d="M14790 4305 c-20 -24 -4 -65 26 -65 36 0 64 17 64 40 0 36 -66 54
-90 25z"/>
<path d="M15941 4298 c-4 -12 -6 -30 -3 -40 9 -34 92 -16 92 20 0 44 -74 60
-89 20z"/>
<path d="M16210 4360 c-43 -43 -11 -120 50 -120 45 0 74 33 66 79 -3 20 -13
42 -23 48 -25 19 -70 16 -93 -7z"/>
<path d="M16497 4368 c-28 -22 -32 -69 -7 -101 44 -56 128 -20 117 50 -3 19
-11 41 -18 49 -14 17 -69 18 -92 2z"/>
<path d="M17334 4306 c-11 -29 1 -61 23 -64 52 -7 86 45 44 68 -28 14 -61 12
-67 -4z"/>
<path d="M18447 4368 c-28 -22 -32 -69 -7 -101 40 -50 120 -22 120 43 0 56
-68 91 -113 58z"/>
<path d="M19276 4358 c-19 -27 -20 -51 -5 -81 16 -29 28 -37 60 -37 62 0 88
97 35 132 -24 16 -75 8 -90 -14z"/>
<path d="M19827 4373 c-4 -3 -7 -12 -7 -20 0 -15 105 -19 115 -4 13 22 -88 44
-108 24z"/>
<path d="M20276 4367 c-25 -18 -25 -80 -1 -107 20 -23 63 -26 88 -7 10 6 20
28 23 48 5 29 2 41 -15 58 -24 24 -68 27 -95 8z"/>
<path d="M21650 4305 c-20 -24 -4 -65 26 -65 36 0 64 17 64 40 0 36 -66 54
-90 25z"/>
<path d="M22490 4305 c-18 -22 2 -65 30 -65 50 0 77 39 48 68 -17 17 -63 15
-78 -3z"/>
<path d="M22920 4360 c-26 -26 -26 -70 0 -98 42 -45 120 -16 120 44 0 43 -30
74 -70 74 -17 0 -39 -9 -50 -20z"/>
<path d="M23218 4369 c-33 -19 -18 -29 42 -29 45 0 60 4 60 14 0 26 -67 36
-102 15z"/>
<path d="M25002 4368 c-22 -22 -12 -28 48 -28 45 0 60 4 60 14 0 26 -85 37
-108 14z"/>
<path d="M26118 3876 c-17 -39 -4 -56 42 -56 l40 0 0 40 c0 39 -1 40 -35 40
-28 0 -38 -5 -47 -24z"/>
<path d="M15762 3823 c3 -56 4 -58 32 -61 15 -2 41 2 58 9 27 11 29 15 26 58
l-3 46 -58 3 -58 3 3 -58z"/>
<path d="M16727 3762 c-42 -46 -5 -126 55 -120 61 6 86 79 42 122 -21 22 -77
20 -97 -2z"/>
<path d="M21107 3865 c-24 -23 -39 -91 -32 -138 14 -80 85 -112 127 -56 28 37
28 141 1 177 -24 32 -73 41 -96 17z"/>
<path d="M11602 3708 c-27 -27 -6 -68 34 -68 22 0 54 24 54 40 0 32 -64 52
-88 28z"/>
<path d="M12320 3705 c-15 -18 -10 -45 11 -58 42 -27 103 31 63 60 -24 17 -59
17 -74 -2z"/>
<path d="M13010 3760 c-26 -26 -25 -60 1 -94 24 -31 68 -35 92 -8 25 28 26 81
1 106 -22 22 -70 20 -94 -4z"/>
<path d="M14342 3708 c-26 -26 -6 -68 33 -68 20 0 55 27 55 43 0 3 -7 13 -16
21 -18 19 -55 21 -72 4z"/>
<path d="M17002 3708 c-27 -27 -6 -68 34 -68 22 0 54 24 54 40 0 32 -64 52
-88 28z"/>
<path d="M19247 3773 c-4 -3 -7 -12 -7 -20 0 -9 17 -13 60 -13 60 0 70 6 48
28 -13 13 -90 17 -101 5z"/>
<path d="M20036 3764 c-22 -22 -21 -87 2 -107 43 -39 112 -5 112 53 0 58 -75
93 -114 54z"/>
<path d="M23850 3760 c-27 -27 -25 -66 5 -95 64 -65 152 18 99 93 -20 29 -76
30 -104 2z"/>
<path d="M25695 3766 c-13 -9 -19 -26 -19 -49 0 -90 102 -106 128 -20 7 22 -8
62 -28 75 -18 12 -61 9 -81 -6z"/>
<path d="M26752 3768 c-22 -22 -13 -28 49 -28 52 0 60 2 57 18 -4 21 -86 30
-106 10z"/>
<path d="M16345 2187 c-19 -15 -20 -27 -20 -252 0 -293 -11 -275 164 -275 135
0 196 14 258 60 52 38 83 87 99 156 29 128 -50 266 -175 305 -20 6 -97 13
-171 16 -110 4 -139 2 -155 -10z"/>
<path d="M17257 2087 c-105 -34 -149 -173 -87 -275 32 -52 65 -67 151 -67 101
0 109 7 109 101 l0 74 -59 0 c-33 0 -63 -4 -66 -10 -7 -11 1 -13 55 -14 32 -1
35 -4 38 -35 2 -19 1 -44 -2 -57 -6 -22 -12 -24 -69 -24 -96 0 -137 41 -137
140 0 66 20 103 67 125 37 18 68 16 151 -10 36 -12 28 24 -10 40 -51 21 -100
25 -141 12z"/>
<path d="M19275 2080 c-10 -17 20 -44 40 -36 9 3 15 14 13 23 -4 21 -43 30
-53 13z"/>
<path d="M17940 2021 c0 -33 -4 -40 -22 -43 -31 -4 -35 -28 -5 -28 24 0 25 -2
28 -86 4 -76 7 -88 28 -105 25 -20 67 -25 91 -9 19 12 9 20 -31 25 -18 3 -36
10 -41 17 -4 7 -7 45 -6 83 l3 70 38 3 c48 4 44 26 -6 30 -33 3 -36 6 -39 40
-2 26 -8 38 -20 40 -15 3 -18 -4 -18 -37z"/>
<path d="M19920 2021 c0 -33 -4 -40 -22 -43 -32 -5 -35 -28 -4 -28 26 0 26 0
26 -84 0 -79 2 -86 26 -105 28 -22 69 -27 94 -11 20 12 8 22 -37 29 l-38 6 0
80 0 80 33 5 c45 7 45 24 0 28 -37 3 -38 4 -38 43 0 32 -3 39 -20 39 -17 0
-20 -7 -20 -39z"/>
<path d="M18179 1983 c-15 -2 -39 -17 -55 -34 -38 -39 -41 -118 -6 -166 62
-87 202 -33 202 79 0 86 -55 133 -141 121z m85 -55 c9 -12 16 -42 16 -66 0
-99 -110 -128 -140 -37 -13 39 -6 88 17 110 23 24 89 19 107 -7z"/>
<path d="M18630 1982 c-14 -2 -35 -13 -46 -23 -21 -20 -21 -20 -27 0 -3 12
-12 21 -21 21 -14 0 -16 -21 -16 -165 0 -158 1 -165 20 -165 18 0 20 7 20 60
0 33 2 60 3 60 2 0 19 -7 37 -16 68 -35 138 12 147 97 8 81 -47 142 -117 131z
m47 -40 c16 -10 33 -57 33 -92 0 -61 -73 -100 -119 -63 -17 14 -25 33 -28 70
-5 43 -2 53 18 72 23 21 73 28 96 13z"/>
<path d="M19068 1983 c-15 -2 -39 -18 -53 -34 -20 -25 -25 -41 -25 -86 0 -49
4 -59 34 -89 38 -38 77 -44 125 -20 42 22 61 58 61 116 0 44 -5 56 -29 81 -16
16 -36 29 -44 29 -9 0 -21 2 -29 3 -7 2 -25 2 -40 0z m86 -54 c30 -28 27 -116
-5 -142 -28 -23 -87 -17 -106 10 -16 21 -17 97 -2 124 21 41 75 45 113 8z"/>
<path d="M19473 1983 c-26 -5 -70 -55 -79 -89 -10 -40 5 -89 36 -119 26 -25
38 -29 86 -28 37 0 61 6 72 17 22 22 12 27 -32 15 -66 -18 -126 11 -126 63 0
16 10 18 85 18 96 0 107 8 85 61 -19 46 -72 72 -127 62z m86 -49 c37 -46 29
-54 -53 -54 -41 0 -77 4 -80 9 -3 5 7 23 23 40 38 40 81 42 110 5z"/>
<path d="M17541 1961 c-32 -32 -46 -94 -33 -139 15 -50 41 -72 90 -79 98 -13
160 81 118 182 -18 42 -42 55 -105 55 -37 0 -56 -5 -70 -19z m133 -33 c26 -36
21 -104 -10 -135 -20 -20 -31 -24 -57 -19 -54 11 -63 30 -58 118 2 38 26 58
71 58 29 0 43 -6 54 -22z"/>
<path d="M18820 1859 c0 -109 2 -120 18 -117 14 3 17 17 20 90 3 93 7 101 60
115 18 4 33 13 33 18 0 17 -38 17 -70 0 -28 -14 -31 -14 -31 0 0 8 -7 15 -15
15 -13 0 -15 -20 -15 -121z"/>
<path d="M19280 1847 c0 -139 -6 -162 -44 -169 -11 -1 -21 -9 -24 -17 -8 -23
70 -6 91 20 14 18 17 43 17 160 0 132 -1 139 -20 139 -19 0 -20 -7 -20 -133z"/>
<path d="M19710 1967 c-73 -59 -62 -183 19 -217 41 -16 114 -3 119 22 3 15 -1
16 -30 7 -51 -14 -95 4 -104 44 -20 90 10 132 88 125 34 -4 48 -1 48 7 0 7 -7
16 -16 19 -27 10 -108 6 -124 -7z"/>
<path d="M20101 1954 c-40 -50 -20 -87 51 -99 57 -10 78 -22 78 -45 0 -36 -67
-52 -124 -30 -14 5 -26 6 -26 1 0 -37 122 -50 159 -17 13 12 21 31 21 52 0 29
-4 34 -42 48 -24 8 -54 17 -68 18 -20 2 -25 8 -25 32 0 42 24 53 81 38 52 -14
69 -8 40 14 -11 8 -43 14 -72 14 -45 0 -56 -4 -73 -26z"/>
<path d="M16842 1787 c-32 -60 -78 -106 -131 -131 -38 -17 -73 -21 -201 -26
-191 -7 -181 -25 15 -25 129 0 131 0 200 35 73 37 113 81 134 149 14 48 9 47
-17 -2z"/>
<path d="M23435 2178 c-6 -16 -18 -18 -95 -18 -73 0 -91 3 -98 17 -9 15 -16
15 -64 5 -29 -7 -67 -21 -83 -31 -62 -37 -135 -239 -135 -372 0 -76 4 -81 105
-131 81 -41 89 -42 108 -9 22 38 22 40 -8 51 -14 5 -25 15 -25 21 0 7 7 8 18
4 89 -38 239 -43 331 -10 51 18 51 18 51 7 0 -5 -11 -15 -25 -22 -30 -16 -31
-27 -6 -59 l19 -25 74 37 c113 57 110 54 111 144 1 97 -15 165 -64 271 -41 90
-52 98 -161 127 -44 11 -48 10 -53 -7z m-189 -236 c18 -11 34 -48 34 -76 0
-62 -81 -89 -119 -40 -26 33 -26 50 -1 92 15 24 27 32 47 32 16 0 33 -4 39 -8z
m264 -12 c25 -25 27 -86 3 -112 -9 -10 -30 -18 -49 -18 -60 0 -85 71 -43 124
25 31 61 34 89 6z"/>
</g>
</svg>
